{"glyphs":{"0":{"ha":954,"x_min":0,"x_max":0,"o":"m 478 -24 b 890 504 732 -24 890 181 b 478 1031 890 828 732 1031 b 64 504 224 1031 64 828 b 478 -24 64 181 224 -24 z m 478 140 b 264 504 344 140 264 276 b 478 867 264 732 344 867 b 690 504 611 867 690 732 b 478 140 690 276 611 140 z "},"1":{"ha":618,"x_min":0,"x_max":0,"o":"m 40 797 l 40 599 l 314 786 l 314 0 l 508 0 l 508 1007 l 333 1007 z "},"2":{"ha":831,"x_min":0,"x_max":0,"o":"m 485 275 b 768 711 654 426 768 550 b 410 1031 768 906 617 1031 b 44 703 192 1031 64 900 l 228 703 b 410 868 244 807 313 868 b 575 708 519 868 575 793 b 354 394 575 600 467 496 l 54 125 l 54 0 l 772 0 l 772 150 l 346 150 z "},"3":{"ha":844,"x_min":0,"x_max":0,"o":"m 772 879 l 772 1007 l 58 1007 l 58 857 l 526 857 l 239 558 l 311 446 b 401 457 332 451 369 457 b 594 300 524 457 594 390 b 418 142 594 208 528 142 b 214 293 319 142 242 194 l 28 293 b 422 -22 60 93 203 -22 b 789 297 653 -22 789 118 b 490 589 789 458 675 571 z "},"4":{"ha":910,"x_min":0,"x_max":0,"o":"m 717 333 l 717 1007 l 546 1007 l 40 314 l 40 183 l 539 183 l 539 0 l 717 0 l 717 183 l 869 183 l 869 333 z m 539 733 l 539 333 l 249 333 z "},"5":{"ha":886,"x_min":0,"x_max":0,"o":"m 469 669 b 275 624 392 669 328 654 l 311 857 l 785 857 l 785 1007 l 161 1007 l 82 476 l 229 424 b 435 511 278 479 344 511 b 636 326 564 511 636 436 b 440 143 636 217 563 143 b 232 281 335 143 256 194 l 42 281 b 439 -19 88 72 247 -19 b 831 332 671 -19 831 117 b 469 669 831 536 689 669 z "},"6":{"ha":919,"x_min":0,"x_max":0,"o":"m 506 674 b 247 569 397 674 308 636 b 488 875 264 764 346 875 b 668 754 576 875 636 832 l 847 754 b 492 1031 801 926 685 1031 b 64 485 219 1031 64 818 b 482 -24 64 164 217 -24 b 869 326 706 -24 869 115 b 506 674 869 538 711 674 z m 479 132 b 276 331 354 132 276 215 b 479 525 276 447 357 525 b 681 331 601 525 681 446 b 479 132 681 215 603 132 z "},"7":{"ha":804,"x_min":0,"x_max":0,"o":"m 40 857 l 551 857 l 129 0 l 338 0 l 764 876 l 764 1007 l 40 1007 z "},"8":{"ha":925,"x_min":0,"x_max":0,"o":"m 679 524 b 831 754 775 571 831 651 b 463 1031 831 922 685 1031 b 94 754 240 1031 94 922 b 246 524 94 651 149 571 b 58 275 124 479 58 393 b 463 -22 58 89 210 -22 b 867 275 713 -22 867 88 b 679 524 867 393 801 481 z m 463 883 b 657 740 585 883 657 826 b 463 589 657 649 582 589 b 267 739 346 589 267 644 b 463 883 267 826 339 883 z m 463 125 b 251 283 333 125 251 186 b 463 446 251 385 333 446 b 674 283 592 446 674 385 b 463 125 674 186 592 125 z "},"9":{"ha":919,"x_min":0,"x_max":0,"o":"m 439 1031 b 50 681 214 1031 50 892 b 414 333 50 469 208 333 b 672 436 522 333 611 371 b 432 132 656 242 574 132 b 251 253 343 132 283 175 l 72 253 b 429 -24 118 81 235 -24 b 856 522 700 -24 856 189 b 439 1031 856 843 703 1031 z m 440 482 b 239 676 318 482 239 561 b 440 875 239 792 317 875 b 643 676 565 875 643 792 b 440 482 643 560 563 482 z "}," ":{"ha":274,"x_min":0,"x_max":0,"o":""},"A":{"ha":1038,"x_min":0,"x_max":0,"o":"m 1021 0 l 614 1007 l 424 1007 l 15 0 l 211 0 l 304 242 l 728 242 l 822 0 z m 515 786 l 665 404 l 368 404 z "},"Á":{"ha":1038,"x_min":0,"x_max":0,"o":"m 564 1325 l 429 1100 l 582 1100 l 788 1325 z m 1021 0 l 614 1007 l 424 1007 l 15 0 l 211 0 l 304 242 l 728 242 l 822 0 z m 515 786 l 665 404 l 368 404 z "},"Ă":{"ha":1038,"x_min":0,"x_max":0,"o":"m 517 1097 b 764 1317 672 1097 763 1174 l 614 1317 b 519 1218 611 1249 576 1218 b 422 1317 460 1218 425 1249 l 274 1317 b 517 1097 275 1174 375 1097 z m 1021 0 l 614 1007 l 424 1007 l 15 0 l 211 0 l 304 242 l 728 242 l 822 0 z m 515 786 l 665 404 l 368 404 z "},"Ǎ":{"ha":1038,"x_min":0,"x_max":0,"o":"m 790 1325 l 618 1325 l 518 1217 l 418 1325 l 246 1325 l 439 1100 l 599 1100 z m 1021 0 l 614 1007 l 424 1007 l 15 0 l 211 0 l 304 242 l 728 242 l 822 0 z m 515 786 l 665 404 l 368 404 z "},"Â":{"ha":1038,"x_min":0,"x_max":0,"o":"m 618 1100 l 790 1100 l 599 1325 l 439 1325 l 246 1100 l 418 1100 l 518 1208 z m 1021 0 l 614 1007 l 424 1007 l 15 0 l 211 0 l 304 242 l 728 242 l 822 0 z m 515 786 l 665 404 l 368 404 z "},"Ä":{"ha":1038,"x_min":0,"x_max":0,"o":"m 329 1101 b 435 1203 386 1101 435 1144 b 329 1304 435 1260 388 1304 b 224 1203 269 1304 224 1260 b 329 1101 224 1144 269 1101 z m 708 1101 b 813 1203 765 1101 813 1144 b 708 1304 813 1260 767 1304 b 601 1203 649 1304 601 1260 b 708 1101 601 1144 649 1101 z m 1021 0 l 614 1007 l 424 1007 l 15 0 l 211 0 l 304 242 l 728 242 l 822 0 z m 515 786 l 665 404 l 368 404 z "},"À":{"ha":1038,"x_min":0,"x_max":0,"o":"m 474 1325 l 249 1325 l 451 1100 l 604 1100 z m 1021 0 l 614 1007 l 424 1007 l 15 0 l 211 0 l 304 242 l 728 242 l 822 0 z m 515 786 l 665 404 l 368 404 z "},"Ā":{"ha":1038,"x_min":0,"x_max":0,"o":"m 269 1247 l 269 1114 l 767 1114 l 767 1247 z m 1021 0 l 614 1007 l 424 1007 l 15 0 l 211 0 l 304 242 l 728 242 l 822 0 z m 515 786 l 665 404 l 368 404 z "},"Ą":{"ha":1038,"x_min":0,"x_max":0,"o":"m 1021 0 l 614 1007 l 424 1007 l 15 0 l 211 0 l 304 242 l 728 242 l 822 1 b 731 -161 764 -46 731 -100 b 885 -286 731 -235 785 -286 b 969 -279 913 -286 942 -285 l 969 -174 l 951 -174 b 882 -126 907 -174 882 -158 b 969 0 882 -79 913 -32 z m 515 786 l 665 404 l 368 404 z "},"Å":{"ha":1038,"x_min":0,"x_max":0,"o":"m 519 1093 b 686 1256 617 1093 686 1160 b 519 1417 686 1350 617 1417 b 350 1256 421 1417 350 1350 b 519 1093 350 1160 421 1093 z m 519 1325 b 589 1256 560 1325 589 1296 b 519 1183 589 1214 560 1183 b 449 1256 478 1183 449 1214 b 519 1325 449 1296 478 1325 z m 1021 0 l 614 1007 l 424 1007 l 15 0 l 211 0 l 304 242 l 728 242 l 822 0 z m 515 786 l 665 404 l 368 404 z "},"Ã":{"ha":1038,"x_min":0,"x_max":0,"o":"m 431 1190 b 633 1100 497 1190 510 1100 b 808 1311 744 1100 808 1169 l 668 1311 b 608 1231 665 1258 650 1231 b 406 1321 540 1231 528 1321 b 231 1110 293 1321 231 1251 l 371 1110 b 431 1190 374 1163 388 1190 z m 1021 0 l 614 1007 l 424 1007 l 15 0 l 211 0 l 304 242 l 728 242 l 822 0 z m 515 786 l 665 404 l 368 404 z "},"Æ":{"ha":1485,"x_min":0,"x_max":0,"o":"m 897 432 l 1340 432 l 1340 594 l 897 594 l 897 844 l 1399 844 l 1399 1007 l 615 1007 l 15 0 l 226 0 l 367 242 l 704 242 l 704 0 l 1404 0 l 1404 163 l 897 163 z m 704 826 l 704 404 l 460 404 z "},"B":{"ha":946,"x_min":0,"x_max":0,"o":"m 711 525 b 850 740 799 565 850 639 b 529 1007 850 901 718 1007 l 111 1007 l 111 0 l 560 0 b 889 275 756 0 889 106 b 711 525 889 397 821 486 z m 651 719 b 508 592 651 644 597 592 l 304 592 l 304 849 l 508 849 b 651 719 597 849 651 793 z m 304 158 l 304 439 l 540 439 b 690 299 633 439 690 382 b 540 158 690 213 633 158 z "},"C":{"ha":1088,"x_min":0,"x_max":0,"o":"m 569 -24 b 1033 313 806 -24 981 108 l 836 313 b 569 140 790 206 697 140 b 258 504 382 140 258 286 b 569 867 258 713 375 867 b 838 692 699 867 793 800 l 1035 692 b 568 1031 982 897 807 1031 b 58 504 268 1031 58 807 b 569 -24 58 199 269 -24 z "},"Ć":{"ha":1088,"x_min":0,"x_max":0,"o":"m 633 1100 l 839 1325 l 615 1325 l 481 1100 z m 569 -24 b 1033 313 806 -24 981 108 l 836 313 b 569 140 790 206 697 140 b 258 504 382 140 258 286 b 569 867 258 713 375 867 b 838 692 699 867 793 800 l 1035 692 b 568 1031 982 897 807 1031 b 58 504 268 1031 58 807 b 569 -24 58 199 269 -24 z "},"Č":{"ha":1088,"x_min":0,"x_max":0,"o":"m 840 1325 l 668 1325 l 568 1217 l 468 1325 l 296 1325 l 489 1100 l 649 1100 z m 569 140 b 258 504 382 140 258 286 b 569 867 258 713 375 867 b 838 692 699 867 793 800 l 1035 692 b 568 1031 982 897 807 1031 b 58 504 268 1031 58 807 b 569 -24 58 199 269 -24 b 1033 313 806 -24 981 108 l 836 313 b 569 140 790 206 697 140 z "},"Ç":{"ha":1088,"x_min":0,"x_max":0,"o":"m 569 140 b 258 504 382 140 258 286 b 569 867 258 713 375 867 b 838 692 699 867 793 800 l 1035 692 b 568 1031 982 897 807 1031 b 58 504 268 1031 58 807 b 489 -18 58 226 232 18 l 447 -81 l 475 -133 l 506 -133 b 550 -164 539 -133 550 -143 b 492 -192 550 -185 529 -192 b 426 -187 469 -192 454 -192 l 426 -278 b 513 -285 457 -283 483 -285 b 683 -171 635 -285 683 -243 b 558 -71 683 -110 633 -74 l 593 -24 b 1033 313 817 -15 982 115 l 836 313 b 569 140 790 206 697 140 z "},"Ĉ":{"ha":1088,"x_min":0,"x_max":0,"o":"m 668 1100 l 840 1100 l 649 1325 l 489 1325 l 296 1100 l 468 1100 l 568 1208 z m 569 140 b 258 504 382 140 258 286 b 569 867 258 713 375 867 b 838 692 699 867 793 800 l 1035 692 b 568 1031 982 897 807 1031 b 58 504 268 1031 58 807 b 569 -24 58 199 269 -24 b 1033 313 806 -24 981 108 l 836 313 b 569 140 790 206 697 140 z "},"Ċ":{"ha":1088,"x_min":0,"x_max":0,"o":"m 568 1101 b 685 1214 631 1101 685 1150 b 568 1326 685 1278 633 1326 b 451 1214 503 1326 451 1278 b 568 1101 451 1150 503 1101 z m 569 -24 b 1033 313 806 -24 981 108 l 836 313 b 569 140 790 206 697 140 b 258 504 382 140 258 286 b 569 867 258 713 375 867 b 838 692 699 867 793 800 l 1035 692 b 568 1031 982 897 807 1031 b 58 504 268 1031 58 807 b 569 -24 58 199 269 -24 z "},"D":{"ha":1021,"x_min":0,"x_max":0,"o":"m 111 1007 l 111 0 l 454 0 b 963 504 751 0 963 208 b 454 1007 963 799 751 1007 z m 304 163 l 304 844 l 450 844 b 764 504 633 844 764 700 b 450 163 764 307 633 163 z "},"Ð":{"ha":1021,"x_min":0,"x_max":0,"o":"m 111 1007 l 111 583 l 7 583 l 7 425 l 111 425 l 111 0 l 454 0 b 963 504 751 0 963 208 b 454 1007 963 799 751 1007 z m 304 163 l 304 425 l 531 425 l 531 583 l 304 583 l 304 844 l 450 844 b 764 504 633 844 764 700 b 450 163 764 307 633 163 z "},"Ď":{"ha":1021,"x_min":0,"x_max":0,"o":"m 768 1325 l 596 1325 l 496 1217 l 396 1325 l 224 1325 l 417 1100 l 576 1100 z m 111 1007 l 111 0 l 454 0 b 963 504 751 0 963 208 b 454 1007 963 799 751 1007 z m 304 163 l 304 844 l 450 844 b 764 504 633 844 764 700 b 450 163 764 307 633 163 z "},"Đ":{"ha":1021,"x_min":0,"x_max":0,"o":"m 111 1007 l 111 583 l 7 583 l 7 425 l 111 425 l 111 0 l 454 0 b 963 504 751 0 963 208 b 454 1007 963 799 751 1007 z m 304 163 l 304 425 l 531 425 l 531 583 l 304 583 l 304 844 l 450 844 b 764 504 633 844 764 700 b 450 163 764 307 633 163 z "},"E":{"ha":892,"x_min":0,"x_max":0,"o":"m 304 432 l 747 432 l 747 594 l 304 594 l 304 844 l 806 844 l 806 1007 l 111 1007 l 111 0 l 811 0 l 811 163 l 304 163 z "},"É":{"ha":892,"x_min":0,"x_max":0,"o":"m 504 1325 l 369 1100 l 522 1100 l 728 1325 z m 304 432 l 747 432 l 747 594 l 304 594 l 304 844 l 806 844 l 806 1007 l 111 1007 l 111 0 l 811 0 l 811 163 l 304 163 z "},"Ĕ":{"ha":892,"x_min":0,"x_max":0,"o":"m 456 1097 b 703 1317 611 1097 701 1174 l 553 1317 b 458 1218 550 1249 515 1218 b 361 1317 399 1218 364 1249 l 213 1317 b 456 1097 214 1174 314 1097 z m 304 432 l 747 432 l 747 594 l 304 594 l 304 844 l 806 844 l 806 1007 l 111 1007 l 111 0 l 811 0 l 811 163 l 304 163 z "},"Ě":{"ha":892,"x_min":0,"x_max":0,"o":"m 729 1325 l 557 1325 l 457 1217 l 357 1325 l 185 1325 l 378 1100 l 538 1100 z m 304 432 l 747 432 l 747 594 l 304 594 l 304 844 l 806 844 l 806 1007 l 111 1007 l 111 0 l 811 0 l 811 163 l 304 163 z "},"Ê":{"ha":892,"x_min":0,"x_max":0,"o":"m 557 1100 l 729 1100 l 538 1325 l 378 1325 l 185 1100 l 357 1100 l 457 1208 z m 304 432 l 747 432 l 747 594 l 304 594 l 304 844 l 806 844 l 806 1007 l 111 1007 l 111 0 l 811 0 l 811 163 l 304 163 z "},"Ë":{"ha":892,"x_min":0,"x_max":0,"o":"m 268 1101 b 374 1203 325 1101 374 1144 b 268 1304 374 1260 326 1304 b 163 1203 208 1304 163 1260 b 268 1101 163 1144 208 1101 z m 647 1101 b 751 1203 704 1101 751 1144 b 647 1304 751 1260 706 1304 b 540 1203 588 1304 540 1260 b 647 1101 540 1144 588 1101 z m 304 432 l 747 432 l 747 594 l 304 594 l 304 844 l 806 844 l 806 1007 l 111 1007 l 111 0 l 811 0 l 811 163 l 304 163 z "},"Ė":{"ha":892,"x_min":0,"x_max":0,"o":"m 457 1101 b 574 1214 519 1101 574 1150 b 457 1326 574 1278 522 1326 b 340 1214 392 1326 340 1278 b 457 1101 340 1150 392 1101 z m 304 432 l 747 432 l 747 594 l 304 594 l 304 844 l 806 844 l 806 1007 l 111 1007 l 111 0 l 811 0 l 811 163 l 304 163 z "},"È":{"ha":892,"x_min":0,"x_max":0,"o":"m 413 1325 l 188 1325 l 390 1100 l 543 1100 z m 304 432 l 747 432 l 747 594 l 304 594 l 304 844 l 806 844 l 806 1007 l 111 1007 l 111 0 l 811 0 l 811 163 l 304 163 z "},"Ē":{"ha":892,"x_min":0,"x_max":0,"o":"m 210 1247 l 210 1114 l 707 1114 l 707 1247 z m 304 432 l 747 432 l 747 594 l 304 594 l 304 844 l 806 844 l 806 1007 l 111 1007 l 111 0 l 811 0 l 811 163 l 304 163 z "},"Ę":{"ha":892,"x_min":0,"x_max":0,"o":"m 811 163 l 304 163 l 304 432 l 747 432 l 747 594 l 304 594 l 304 844 l 806 844 l 806 1007 l 111 1007 l 111 0 l 661 0 b 572 -161 606 -47 572 -101 b 726 -286 572 -235 626 -286 b 811 -279 754 -286 783 -285 l 811 -174 l 793 -174 b 724 -126 749 -174 724 -158 b 811 0 724 -79 754 -32 z "},"Ẽ":{"ha":892,"x_min":0,"x_max":0,"o":"m 369 1190 b 572 1100 436 1190 449 1100 b 747 1311 683 1100 747 1169 l 607 1311 b 547 1231 604 1258 589 1231 b 344 1321 479 1231 467 1321 b 169 1110 232 1321 169 1251 l 310 1110 b 369 1190 313 1163 326 1190 z m 304 432 l 747 432 l 747 594 l 304 594 l 304 844 l 806 844 l 806 1007 l 111 1007 l 111 0 l 811 0 l 811 163 l 304 163 z "},"F":{"ha":857,"x_min":0,"x_max":0,"o":"m 786 1007 l 111 1007 l 111 0 l 304 0 l 304 418 l 725 418 l 725 581 l 304 581 l 304 844 l 786 844 z "},"Ƒ":{"ha":790,"x_min":0,"x_max":0,"o":"m 765 854 l 765 1007 l 599 1007 b 361 829 461 1007 383 956 l 335 676 l 164 676 l 164 525 l 308 525 l 214 -15 b 107 -97 204 -71 172 -97 l -15 -97 l -15 -250 l 157 -250 b 389 -72 289 -250 367 -200 l 493 525 l 724 525 l 724 676 l 519 676 l 536 772 b 643 854 547 828 578 854 z "},"G":{"ha":1133,"x_min":0,"x_max":0,"o":"m 536 383 l 865 383 b 571 140 846 233 731 140 b 256 503 376 140 256 289 b 569 867 256 714 374 867 b 822 725 685 867 772 814 l 1025 725 b 571 1031 963 911 793 1031 b 58 501 268 1031 58 807 b 547 -24 58 186 278 -24 b 861 119 704 -24 801 43 l 861 0 l 1033 0 l 1033 542 l 536 542 z "},"Ğ":{"ha":1133,"x_min":0,"x_max":0,"o":"m 567 1097 b 814 1317 722 1097 813 1174 l 664 1317 b 569 1218 661 1249 626 1218 b 472 1317 510 1218 475 1249 l 324 1317 b 567 1097 325 1174 425 1097 z m 536 383 l 865 383 b 571 140 846 233 731 140 b 256 503 376 140 256 289 b 569 867 256 714 374 867 b 822 725 685 867 772 814 l 1025 725 b 571 1031 963 911 793 1031 b 58 501 268 1031 58 807 b 547 -24 58 186 278 -24 b 861 119 704 -24 801 43 l 861 0 l 1033 0 l 1033 542 l 536 542 z "},"Ǧ":{"ha":1133,"x_min":0,"x_max":0,"o":"m 840 1325 l 668 1325 l 568 1217 l 468 1325 l 296 1325 l 489 1100 l 649 1100 z m 536 383 l 865 383 b 571 140 846 233 731 140 b 256 503 376 140 256 289 b 569 867 256 714 374 867 b 822 725 685 867 772 814 l 1025 725 b 571 1031 963 911 793 1031 b 58 501 268 1031 58 807 b 547 -24 58 186 278 -24 b 861 119 704 -24 801 43 l 861 0 l 1033 0 l 1033 542 l 536 542 z "},"Ĝ":{"ha":1133,"x_min":0,"x_max":0,"o":"m 668 1100 l 840 1100 l 649 1325 l 489 1325 l 296 1100 l 468 1100 l 568 1208 z m 536 383 l 865 383 b 571 140 846 233 731 140 b 256 503 376 140 256 289 b 569 867 256 714 374 867 b 822 725 685 867 772 814 l 1025 725 b 571 1031 963 911 793 1031 b 58 501 268 1031 58 807 b 547 -24 58 186 278 -24 b 861 119 704 -24 801 43 l 861 0 l 1033 0 l 1033 542 l 536 542 z "},"Ģ":{"ha":1133,"x_min":0,"x_max":0,"o":"m 536 383 l 865 383 b 571 140 846 233 731 140 b 256 503 376 140 256 289 b 569 867 256 714 374 867 b 822 725 685 867 772 814 l 1025 725 b 571 1031 963 911 793 1031 b 58 501 268 1031 58 807 b 547 -24 58 186 278 -24 b 861 119 704 -24 801 43 l 861 0 l 1033 0 l 1033 542 l 536 542 z m 579 -299 l 656 -83 l 482 -83 l 446 -299 z "},"Ġ":{"ha":1133,"x_min":0,"x_max":0,"o":"m 569 1101 b 686 1214 632 1101 686 1150 b 569 1326 686 1278 635 1326 b 453 1214 504 1326 453 1278 b 569 1101 453 1150 504 1101 z m 536 383 l 865 383 b 571 140 846 233 731 140 b 256 503 376 140 256 289 b 569 867 256 714 374 867 b 822 725 685 867 772 814 l 1025 725 b 571 1031 963 911 793 1031 b 58 501 268 1031 58 807 b 547 -24 58 186 278 -24 b 861 119 704 -24 801 43 l 861 0 l 1033 0 l 1033 542 l 536 542 z "},"H":{"ha":1042,"x_min":0,"x_max":0,"o":"m 738 594 l 304 594 l 304 1007 l 111 1007 l 111 0 l 304 0 l 304 432 l 738 432 l 738 0 l 931 0 l 931 1007 l 738 1007 z "},"Ħ":{"ha":1042,"x_min":0,"x_max":0,"o":"m 931 881 l 931 1007 l 738 1007 l 738 881 l 304 881 l 304 1007 l 111 1007 l 111 881 l 13 881 l 13 722 l 111 722 l 111 0 l 304 0 l 304 432 l 738 432 l 738 0 l 931 0 l 931 722 l 1028 722 l 1028 881 z m 304 594 l 304 722 l 738 722 l 738 594 z "},"Ĥ":{"ha":1042,"x_min":0,"x_max":0,"o":"m 621 1100 l 793 1100 l 601 1325 l 442 1325 l 249 1100 l 421 1100 l 521 1208 z m 738 594 l 304 594 l 304 1007 l 111 1007 l 111 0 l 304 0 l 304 432 l 738 432 l 738 0 l 931 0 l 931 1007 l 738 1007 z "},"I":{"ha":415,"x_min":0,"x_max":0,"o":"m 304 0 l 304 1007 l 111 1007 l 111 0 z "},"Ĳ":{"ha":982,"x_min":0,"x_max":0,"o":"m 304 0 l 304 1007 l 111 1007 l 111 0 z m 615 0 b 879 267 849 0 879 142 l 879 1007 l 685 1007 l 685 278 b 575 163 685 193 657 163 l 446 163 l 446 0 z "},"Í":{"ha":415,"x_min":0,"x_max":0,"o":"m 272 1100 l 478 1325 l 254 1325 l 119 1100 z m 304 0 l 304 1007 l 111 1007 l 111 0 z "},"Ĭ":{"ha":415,"x_min":0,"x_max":0,"o":"m 206 1097 b 453 1317 361 1097 451 1174 l 303 1317 b 208 1218 300 1249 265 1218 b 111 1317 149 1218 114 1249 l -37 1317 b 206 1097 -36 1174 64 1097 z m 304 0 l 304 1007 l 111 1007 l 111 0 z "},"Ǐ":{"ha":415,"x_min":0,"x_max":0,"o":"m 479 1325 l 307 1325 l 207 1217 l 107 1325 l -65 1325 l 128 1100 l 288 1100 z m 304 0 l 304 1007 l 111 1007 l 111 0 z "},"Î":{"ha":415,"x_min":0,"x_max":0,"o":"m 128 1325 l -65 1100 l 107 1100 l 207 1208 l 307 1100 l 479 1100 l 288 1325 z m 304 0 l 304 1007 l 111 1007 l 111 0 z "},"Ï":{"ha":415,"x_min":0,"x_max":0,"o":"m 18 1101 b 124 1203 75 1101 124 1144 b 18 1304 124 1260 76 1304 b -87 1203 -42 1304 -87 1260 b 18 1101 -87 1144 -42 1101 z m 397 1101 b 501 1203 454 1101 501 1144 b 397 1304 501 1260 456 1304 b 290 1203 338 1304 290 1260 b 397 1101 290 1144 338 1101 z m 304 0 l 304 1007 l 111 1007 l 111 0 z "},"İ":{"ha":415,"x_min":0,"x_max":0,"o":"m 207 1101 b 324 1214 269 1101 324 1150 b 207 1326 324 1278 272 1326 b 90 1214 142 1326 90 1278 b 207 1101 90 1150 142 1101 z m 304 0 l 304 1007 l 111 1007 l 111 0 z "},"Ị":{"ha":415,"x_min":0,"x_max":0,"o":"m 304 0 l 304 1007 l 111 1007 l 111 0 z m 207 -331 b 324 -218 269 -331 324 -282 b 207 -106 324 -153 272 -106 b 90 -218 142 -106 90 -153 b 207 -331 90 -282 142 -331 z "},"Ì":{"ha":415,"x_min":0,"x_max":0,"o":"m 293 1100 l 163 1325 l -62 1325 l 140 1100 z m 304 0 l 304 1007 l 111 1007 l 111 0 z "},"Ī":{"ha":415,"x_min":0,"x_max":0,"o":"m 456 1114 l 456 1247 l -42 1247 l -42 1114 z m 304 0 l 304 1007 l 111 1007 l 111 0 z "},"Į":{"ha":415,"x_min":0,"x_max":0,"o":"m 218 -126 b 306 0 218 -79 249 -32 l 304 0 l 304 1007 l 111 1007 l 111 0 l 156 0 b 67 -161 100 -47 67 -101 b 221 -286 67 -235 121 -286 b 306 -279 249 -286 278 -285 l 306 -174 l 288 -174 b 218 -126 243 -174 218 -158 z "},"Ĩ":{"ha":415,"x_min":0,"x_max":0,"o":"m 322 1100 b 497 1311 433 1100 497 1169 l 357 1311 b 297 1231 354 1258 339 1231 b 94 1321 229 1231 217 1321 b -81 1110 -18 1321 -81 1251 l 60 1110 b 119 1190 63 1163 76 1190 b 322 1100 186 1190 199 1100 z m 304 0 l 304 1007 l 111 1007 l 111 0 z "},"J":{"ha":567,"x_min":0,"x_max":0,"o":"m 200 0 b 464 267 433 0 464 142 l 464 1007 l 269 1007 l 269 278 b 160 163 269 193 242 163 l 31 163 l 31 0 z "},"Ĵ":{"ha":567,"x_min":0,"x_max":0,"o":"m 288 1325 l 94 1100 l 267 1100 l 367 1208 l 467 1100 l 639 1100 l 447 1325 z m 269 278 b 160 163 269 193 242 163 l 31 163 l 31 0 l 200 0 b 464 267 433 0 464 142 l 464 1007 l 269 1007 z "},"K":{"ha":967,"x_min":0,"x_max":0,"o":"m 949 0 l 543 581 l 919 1007 l 700 1007 l 304 554 l 304 1007 l 111 1007 l 111 0 l 304 0 l 304 311 l 415 438 l 721 0 z "},"Ķ":{"ha":967,"x_min":0,"x_max":0,"o":"m 919 1007 l 700 1007 l 304 554 l 304 1007 l 111 1007 l 111 0 l 304 0 l 304 311 l 415 438 l 721 0 l 949 0 l 543 581 z m 504 -299 l 581 -83 l 407 -83 l 371 -299 z "},"L":{"ha":833,"x_min":0,"x_max":0,"o":"m 304 1007 l 111 1007 l 111 0 l 776 0 l 776 163 l 304 163 z "},"Ĺ":{"ha":833,"x_min":0,"x_max":0,"o":"m 254 1325 l 119 1100 l 272 1100 l 478 1325 z m 304 1007 l 111 1007 l 111 0 l 776 0 l 776 163 l 304 163 z "},"Ľ":{"ha":833,"x_min":0,"x_max":0,"o":"m 304 1007 l 111 1007 l 111 0 l 776 0 l 776 163 l 304 163 z m 394 1007 l 386 682 l 508 682 l 558 1007 z "},"Ļ":{"ha":833,"x_min":0,"x_max":0,"o":"m 304 1007 l 111 1007 l 111 0 l 776 0 l 776 163 l 304 163 z m 438 -299 l 514 -83 l 340 -83 l 304 -299 z "},"Ł":{"ha":833,"x_min":0,"x_max":0,"o":"m 304 365 l 553 510 l 553 699 l 304 554 l 304 1007 l 111 1007 l 111 457 l 24 404 l 24 217 l 111 269 l 111 0 l 776 0 l 776 163 l 304 163 z "},"M":{"ha":1267,"x_min":0,"x_max":0,"o":"m 638 422 l 292 1007 l 111 1007 l 111 0 l 296 0 l 296 681 l 581 197 l 696 197 l 971 676 l 971 0 l 1156 0 l 1156 1007 l 974 1007 z "},"N":{"ha":1044,"x_min":0,"x_max":0,"o":"m 754 319 l 276 1007 l 111 1007 l 111 0 l 289 0 l 289 692 l 769 0 l 933 0 l 933 1007 l 754 1007 z "},"Ń":{"ha":1044,"x_min":0,"x_max":0,"o":"m 568 1325 l 433 1100 l 586 1100 l 792 1325 z m 754 319 l 276 1007 l 111 1007 l 111 0 l 289 0 l 289 692 l 769 0 l 933 0 l 933 1007 l 754 1007 z "},"Ň":{"ha":1044,"x_min":0,"x_max":0,"o":"m 793 1325 l 621 1325 l 521 1217 l 421 1325 l 249 1325 l 442 1100 l 601 1100 z m 754 319 l 276 1007 l 111 1007 l 111 0 l 289 0 l 289 692 l 769 0 l 933 0 l 933 1007 l 754 1007 z "},"Ņ":{"ha":1044,"x_min":0,"x_max":0,"o":"m 754 319 l 276 1007 l 111 1007 l 111 0 l 289 0 l 289 692 l 769 0 l 933 0 l 933 1007 l 754 1007 z m 532 -299 l 608 -83 l 435 -83 l 399 -299 z "},"Ñ":{"ha":1044,"x_min":0,"x_max":0,"o":"m 433 1190 b 636 1100 500 1190 513 1100 b 811 1311 747 1100 811 1169 l 671 1311 b 611 1231 668 1258 653 1231 b 408 1321 543 1231 531 1321 b 233 1110 296 1321 233 1251 l 374 1110 b 433 1190 376 1163 390 1190 z m 754 319 l 276 1007 l 111 1007 l 111 0 l 289 0 l 289 692 l 769 0 l 933 0 l 933 1007 l 754 1007 z "},"O":{"ha":1160,"x_min":0,"x_max":0,"o":"m 582 -24 b 1101 504 886 -24 1101 196 b 582 1031 1101 813 886 1031 b 58 504 275 1031 58 813 b 582 -24 58 196 275 -24 z m 582 140 b 258 504 388 140 258 286 b 582 867 258 721 388 867 b 901 504 774 867 901 721 b 582 140 901 286 774 140 z "},"Ó":{"ha":1160,"x_min":0,"x_max":0,"o":"m 644 1100 l 850 1325 l 626 1325 l 492 1100 z m 582 -24 b 1101 504 886 -24 1101 196 b 582 1031 1101 813 886 1031 b 58 504 275 1031 58 813 b 582 -24 58 196 275 -24 z m 582 140 b 258 504 388 140 258 286 b 582 867 258 721 388 867 b 901 504 774 867 901 721 b 582 140 901 286 774 140 z "},"Ŏ":{"ha":1160,"x_min":0,"x_max":0,"o":"m 578 1097 b 825 1317 733 1097 824 1174 l 675 1317 b 581 1218 672 1249 638 1218 b 483 1317 521 1218 486 1249 l 335 1317 b 578 1097 336 1174 436 1097 z m 582 -24 b 1101 504 886 -24 1101 196 b 582 1031 1101 813 886 1031 b 58 504 275 1031 58 813 b 582 -24 58 196 275 -24 z m 582 140 b 258 504 388 140 258 286 b 582 867 258 721 388 867 b 901 504 774 867 901 721 b 582 140 901 286 774 140 z "},"Ǒ":{"ha":1160,"x_min":0,"x_max":0,"o":"m 851 1325 l 679 1325 l 579 1217 l 479 1325 l 307 1325 l 500 1100 l 660 1100 z m 582 1031 b 58 504 275 1031 58 813 b 582 -24 58 196 275 -24 b 1101 504 886 -24 1101 196 b 582 1031 1101 813 886 1031 z m 582 140 b 258 504 388 140 258 286 b 582 867 258 721 388 867 b 901 504 774 867 901 721 b 582 140 901 286 774 140 z "},"Ô":{"ha":1160,"x_min":0,"x_max":0,"o":"m 679 1100 l 851 1100 l 660 1325 l 500 1325 l 307 1100 l 479 1100 l 579 1208 z m 582 1031 b 58 504 275 1031 58 813 b 582 -24 58 196 275 -24 b 1101 504 886 -24 1101 196 b 582 1031 1101 813 886 1031 z m 582 140 b 258 504 388 140 258 286 b 582 867 258 721 388 867 b 901 504 774 867 901 721 b 582 140 901 286 774 140 z "},"Ö":{"ha":1160,"x_min":0,"x_max":0,"o":"m 390 1101 b 496 1203 447 1101 496 1144 b 390 1304 496 1260 449 1304 b 285 1203 331 1304 285 1260 b 390 1101 285 1144 331 1101 z m 769 1101 b 874 1203 826 1101 874 1144 b 769 1304 874 1260 828 1304 b 663 1203 710 1304 663 1260 b 769 1101 663 1144 710 1101 z m 582 -24 b 1101 504 886 -24 1101 196 b 582 1031 1101 813 886 1031 b 58 504 275 1031 58 813 b 582 -24 58 196 275 -24 z m 582 140 b 258 504 388 140 258 286 b 582 867 258 721 388 867 b 901 504 774 867 901 721 b 582 140 901 286 774 140 z "},"Ọ":{"ha":1160,"x_min":0,"x_max":0,"o":"m 582 -24 b 1101 504 886 -24 1101 196 b 582 1031 1101 813 886 1031 b 58 504 275 1031 58 813 b 582 -24 58 196 275 -24 z m 582 140 b 258 504 388 140 258 286 b 582 867 258 721 388 867 b 901 504 774 867 901 721 b 582 140 901 286 774 140 z m 579 -331 b 696 -218 642 -331 696 -282 b 579 -106 696 -153 644 -106 b 463 -218 514 -106 463 -153 b 579 -331 463 -282 514 -331 z "},"Ò":{"ha":1160,"x_min":0,"x_max":0,"o":"m 665 1100 l 535 1325 l 310 1325 l 513 1100 z m 582 -24 b 1101 504 886 -24 1101 196 b 582 1031 1101 813 886 1031 b 58 504 275 1031 58 813 b 582 -24 58 196 275 -24 z m 582 140 b 258 504 388 140 258 286 b 582 867 258 721 388 867 b 901 504 774 867 901 721 b 582 140 901 286 774 140 z "},"Ő":{"ha":1160,"x_min":0,"x_max":0,"o":"m 517 1100 l 640 1325 l 460 1325 l 382 1100 z m 779 1100 l 921 1325 l 740 1325 l 644 1100 z m 582 -24 b 1101 504 886 -24 1101 196 b 582 1031 1101 813 886 1031 b 58 504 275 1031 58 813 b 582 -24 58 196 275 -24 z m 582 140 b 258 504 388 140 258 286 b 582 867 258 721 388 867 b 901 504 774 867 901 721 b 582 140 901 286 774 140 z "},"Ō":{"ha":1160,"x_min":0,"x_max":0,"o":"m 828 1114 l 828 1247 l 331 1247 l 331 1114 z m 582 -24 b 1101 504 886 -24 1101 196 b 582 1031 1101 813 886 1031 b 58 504 275 1031 58 813 b 582 -24 58 196 275 -24 z m 582 140 b 258 504 388 140 258 286 b 582 867 258 721 388 867 b 901 504 774 867 901 721 b 582 140 901 286 774 140 z "},"Ø":{"ha":1160,"x_min":0,"x_max":0,"o":"m 931 1007 l 878 947 b 582 1031 796 1000 694 1031 b 58 504 275 1031 58 813 b 182 150 58 364 104 242 l 47 0 l 226 0 l 282 61 b 582 -24 365 7 467 -24 b 1101 504 886 -24 1101 196 b 978 860 1101 646 1056 768 l 1110 1007 z m 582 867 b 760 815 650 867 710 849 l 311 290 b 258 504 278 349 258 421 b 582 867 258 721 388 867 z m 582 140 b 400 193 513 140 450 160 l 849 718 b 901 504 882 661 901 588 b 582 140 901 286 774 140 z "},"Õ":{"ha":1160,"x_min":0,"x_max":0,"o":"m 694 1100 b 869 1311 806 1100 869 1169 l 729 1311 b 669 1231 726 1258 711 1231 b 467 1321 601 1231 589 1321 b 292 1110 354 1321 292 1251 l 432 1110 b 492 1190 435 1163 449 1190 b 694 1100 558 1190 571 1100 z m 582 -24 b 1101 504 886 -24 1101 196 b 582 1031 1101 813 886 1031 b 58 504 275 1031 58 813 b 582 -24 58 196 275 -24 z m 582 140 b 258 504 388 140 258 286 b 582 867 258 721 388 867 b 901 504 774 867 901 721 b 582 140 901 286 774 140 z "},"Œ":{"ha":1686,"x_min":0,"x_max":0,"o":"m 1099 432 l 1542 432 l 1542 594 l 1099 594 l 1099 844 l 1600 844 l 1600 1007 l 906 1007 l 906 900 b 574 1031 821 982 707 1031 b 58 504 275 1031 58 813 b 574 -24 58 196 275 -24 b 906 108 707 -24 821 25 l 906 0 l 1606 0 l 1606 163 l 1099 163 z m 582 140 b 258 504 388 140 258 286 b 582 867 258 721 388 867 b 901 504 774 867 901 721 b 582 140 901 286 774 140 z "},"P":{"ha":928,"x_min":0,"x_max":0,"o":"m 111 1007 l 111 0 l 304 0 l 304 363 l 525 363 b 872 685 735 363 872 483 b 525 1007 872 883 735 1007 z m 304 526 l 304 844 l 515 844 b 679 685 617 844 679 781 b 515 526 679 588 617 526 z "},"Þ":{"ha":928,"x_min":0,"x_max":0,"o":"m 304 857 l 304 1007 l 111 1007 l 111 0 l 304 0 l 304 213 l 525 213 b 872 533 735 213 872 333 b 525 857 872 733 735 857 z m 304 375 l 304 693 l 515 693 b 679 533 617 693 679 631 b 515 375 679 438 617 375 z "},"Q":{"ha":1160,"x_min":0,"x_max":0,"o":"m 1101 504 b 582 1031 1101 813 886 1031 b 58 504 275 1031 58 813 b 582 -24 58 196 275 -24 b 839 38 678 -24 764 -1 l 871 0 l 1069 0 l 958 128 b 1101 504 1049 221 1101 351 z m 582 140 b 258 504 388 140 258 286 b 582 867 258 721 388 867 b 901 504 774 867 901 721 b 836 269 901 411 878 331 l 719 406 l 522 406 l 724 171 b 582 140 682 151 635 140 z "},"R":{"ha":942,"x_min":0,"x_max":0,"o":"m 904 0 l 633 401 b 849 693 765 439 849 543 b 506 1007 849 883 715 1007 l 111 1007 l 111 0 l 304 0 l 304 386 l 433 386 l 686 0 z m 503 844 b 656 690 593 844 656 783 b 503 540 656 597 593 540 l 304 540 l 304 844 z "},"Ŕ":{"ha":942,"x_min":0,"x_max":0,"o":"m 517 1325 l 382 1100 l 535 1100 l 740 1325 z m 904 0 l 633 401 b 849 693 765 439 849 543 b 506 1007 849 883 715 1007 l 111 1007 l 111 0 l 304 0 l 304 386 l 433 386 l 686 0 z m 503 844 b 656 690 593 844 656 783 b 503 540 656 597 593 540 l 304 540 l 304 844 z "},"Ř":{"ha":942,"x_min":0,"x_max":0,"o":"m 743 1325 l 571 1325 l 471 1217 l 371 1325 l 199 1325 l 392 1100 l 551 1100 z m 904 0 l 633 401 b 849 693 765 439 849 543 b 506 1007 849 883 715 1007 l 111 1007 l 111 0 l 304 0 l 304 386 l 433 386 l 686 0 z m 503 844 b 656 690 593 844 656 783 b 503 540 656 597 593 540 l 304 540 l 304 844 z "},"Ŗ":{"ha":942,"x_min":0,"x_max":0,"o":"m 633 401 b 849 693 765 439 849 543 b 506 1007 849 883 715 1007 l 111 1007 l 111 0 l 304 0 l 304 386 l 433 386 l 686 0 l 904 0 z m 503 844 b 656 690 593 844 656 783 b 503 540 656 597 593 540 l 304 540 l 304 844 z m 481 -299 l 557 -83 l 383 -83 l 347 -299 z "},"S":{"ha":913,"x_min":0,"x_max":0,"o":"m 460 -22 b 857 304 701 -22 857 100 b 569 583 857 454 771 558 l 418 601 b 264 726 371 607 264 626 b 454 876 264 813 339 876 b 656 731 567 876 633 817 l 840 731 b 456 1029 808 922 663 1029 b 68 710 224 1029 68 899 b 349 432 68 546 189 453 l 499 414 b 663 281 597 401 663 361 b 465 131 663 182 575 131 b 232 297 363 131 263 174 l 42 297 b 460 -22 78 75 244 -22 z "},"Ś":{"ha":913,"x_min":0,"x_max":0,"o":"m 521 1100 l 726 1325 l 503 1325 l 368 1100 z m 460 -22 b 857 304 701 -22 857 100 b 569 583 857 454 771 558 l 418 601 b 264 726 371 607 264 626 b 454 876 264 813 339 876 b 656 731 567 876 633 817 l 840 731 b 456 1029 808 922 663 1029 b 68 710 224 1029 68 899 b 349 432 68 546 189 453 l 499 414 b 663 281 597 401 663 361 b 465 131 663 182 575 131 b 232 297 363 131 263 174 l 42 297 b 460 -22 78 75 244 -22 z "},"Š":{"ha":913,"x_min":0,"x_max":0,"o":"m 728 1325 l 556 1325 l 456 1217 l 356 1325 l 183 1325 l 376 1100 l 536 1100 z m 418 601 b 264 726 371 607 264 626 b 454 876 264 813 339 876 b 656 731 567 876 633 817 l 840 731 b 456 1029 808 922 663 1029 b 68 710 224 1029 68 899 b 349 432 68 546 189 453 l 499 414 b 663 281 597 401 663 361 b 465 131 663 182 575 131 b 232 297 363 131 263 174 l 42 297 b 460 -22 78 75 244 -22 b 857 304 701 -22 857 100 b 569 583 857 454 771 558 z "},"Ş":{"ha":913,"x_min":0,"x_max":0,"o":"m 857 304 b 569 583 857 454 771 558 l 418 601 b 264 726 371 607 264 626 b 454 876 264 813 339 876 b 656 731 567 876 633 817 l 840 731 b 456 1029 808 922 663 1029 b 68 710 224 1029 68 899 b 349 432 68 546 189 453 l 499 414 b 663 281 597 401 663 361 b 465 131 663 182 575 131 b 232 297 363 131 263 174 l 42 297 b 399 -19 74 97 214 -3 l 357 -81 l 385 -133 l 415 -133 b 460 -164 449 -133 460 -143 b 401 -192 460 -185 439 -192 b 336 -187 379 -192 364 -192 l 336 -278 b 422 -285 367 -283 393 -285 b 593 -171 544 -285 593 -243 b 468 -71 593 -110 543 -74 l 504 -21 b 857 304 721 -7 857 113 z "},"Ŝ":{"ha":913,"x_min":0,"x_max":0,"o":"m 556 1100 l 728 1100 l 536 1325 l 376 1325 l 183 1100 l 356 1100 l 456 1208 z m 418 601 b 264 726 371 607 264 626 b 454 876 264 813 339 876 b 656 731 567 876 633 817 l 840 731 b 456 1029 808 922 663 1029 b 68 710 224 1029 68 899 b 349 432 68 546 189 453 l 499 414 b 663 281 597 401 663 361 b 465 131 663 182 575 131 b 232 297 363 131 263 174 l 42 297 b 460 -22 78 75 244 -22 b 857 304 701 -22 857 100 b 569 583 857 454 771 558 z "},"Ș":{"ha":913,"x_min":0,"x_max":0,"o":"m 460 -22 b 857 304 701 -22 857 100 b 569 583 857 454 771 558 l 418 601 b 264 726 371 607 264 626 b 454 876 264 813 339 876 b 656 731 567 876 633 817 l 840 731 b 456 1029 808 922 663 1029 b 68 710 224 1029 68 899 b 349 432 68 546 189 453 l 499 414 b 663 281 597 401 663 361 b 465 131 663 182 575 131 b 232 297 363 131 263 174 l 42 297 b 460 -22 78 75 244 -22 z m 467 -299 l 543 -83 l 369 -83 l 333 -299 z "},"ẞ":{"ha":951,"x_min":0,"x_max":0,"o":"m 849 879 l 849 1007 l 111 1007 l 111 0 l 304 0 l 304 857 l 622 857 l 419 590 l 419 456 b 504 457 447 457 478 457 b 699 307 624 457 699 399 b 517 157 699 224 638 157 b 411 160 483 157 449 158 l 411 0 b 532 -6 446 -4 494 -6 b 893 299 768 -6 893 128 b 624 585 893 450 792 558 z "},"T":{"ha":888,"x_min":0,"x_max":0,"o":"m 40 1007 l 40 844 l 347 844 l 347 0 l 540 0 l 540 844 l 847 844 l 847 1007 z "},"Ť":{"ha":888,"x_min":0,"x_max":0,"o":"m 715 1325 l 543 1325 l 443 1217 l 343 1325 l 171 1325 l 364 1100 l 524 1100 z m 40 1007 l 40 844 l 347 844 l 347 0 l 540 0 l 540 844 l 847 844 l 847 1007 z "},"Ţ":{"ha":888,"x_min":0,"x_max":0,"o":"m 540 844 l 847 844 l 847 1007 l 40 1007 l 40 844 l 347 844 l 347 0 l 399 0 l 344 -81 l 372 -133 l 403 -133 b 447 -164 436 -133 447 -143 b 389 -192 447 -185 426 -192 b 324 -187 367 -192 351 -192 l 324 -278 b 410 -285 354 -283 381 -285 b 581 -171 532 -285 581 -243 b 456 -71 581 -110 531 -74 l 507 0 l 540 0 z "},"Ț":{"ha":888,"x_min":0,"x_max":0,"o":"m 40 1007 l 40 844 l 347 844 l 347 0 l 540 0 l 540 844 l 847 844 l 847 1007 z m 453 -299 l 529 -83 l 356 -83 l 319 -299 z "},"U":{"ha":999,"x_min":0,"x_max":0,"o":"m 501 -24 b 903 379 742 -24 903 113 l 903 1007 l 708 1007 l 708 381 b 501 140 708 218 625 140 b 290 381 376 140 290 218 l 290 1007 l 97 1007 l 97 379 b 501 -24 97 113 258 -24 z "},"Ú":{"ha":999,"x_min":0,"x_max":0,"o":"m 564 1100 l 769 1325 l 546 1325 l 411 1100 z m 501 -24 b 903 379 742 -24 903 113 l 903 1007 l 708 1007 l 708 381 b 501 140 708 218 625 140 b 290 381 376 140 290 218 l 290 1007 l 97 1007 l 97 379 b 501 -24 97 113 258 -24 z "},"Ŭ":{"ha":999,"x_min":0,"x_max":0,"o":"m 497 1097 b 744 1317 653 1097 743 1174 l 594 1317 b 500 1218 592 1249 557 1218 b 403 1317 440 1218 406 1249 l 254 1317 b 497 1097 256 1174 356 1097 z m 501 -24 b 903 379 742 -24 903 113 l 903 1007 l 708 1007 l 708 381 b 501 140 708 218 625 140 b 290 381 376 140 290 218 l 290 1007 l 97 1007 l 97 379 b 501 -24 97 113 258 -24 z "},"Ǔ":{"ha":999,"x_min":0,"x_max":0,"o":"m 771 1325 l 599 1325 l 499 1217 l 399 1325 l 226 1325 l 419 1100 l 579 1100 z m 708 381 b 501 140 708 218 625 140 b 290 381 376 140 290 218 l 290 1007 l 97 1007 l 97 379 b 501 -24 97 113 258 -24 b 903 379 742 -24 903 113 l 903 1007 l 708 1007 z "},"Û":{"ha":999,"x_min":0,"x_max":0,"o":"m 599 1100 l 771 1100 l 579 1325 l 419 1325 l 226 1100 l 399 1100 l 499 1208 z m 708 381 b 501 140 708 218 625 140 b 290 381 376 140 290 218 l 290 1007 l 97 1007 l 97 379 b 501 -24 97 113 258 -24 b 903 379 742 -24 903 113 l 903 1007 l 708 1007 z "},"Ü":{"ha":999,"x_min":0,"x_max":0,"o":"m 310 1101 b 415 1203 367 1101 415 1144 b 310 1304 415 1260 368 1304 b 204 1203 250 1304 204 1260 b 310 1101 204 1144 250 1101 z m 689 1101 b 793 1203 746 1101 793 1144 b 689 1304 793 1260 747 1304 b 582 1203 629 1304 582 1260 b 689 1101 582 1144 629 1101 z m 501 -24 b 903 379 742 -24 903 113 l 903 1007 l 708 1007 l 708 381 b 501 140 708 218 625 140 b 290 381 376 140 290 218 l 290 1007 l 97 1007 l 97 379 b 501 -24 97 113 258 -24 z "},"Ụ":{"ha":999,"x_min":0,"x_max":0,"o":"m 501 -24 b 903 379 742 -24 903 113 l 903 1007 l 708 1007 l 708 381 b 501 140 708 218 625 140 b 290 381 376 140 290 218 l 290 1007 l 97 1007 l 97 379 b 501 -24 97 113 258 -24 z m 499 -331 b 615 -218 561 -331 615 -282 b 499 -106 615 -153 564 -106 b 382 -218 433 -106 382 -153 b 499 -331 382 -282 433 -331 z "},"Ù":{"ha":999,"x_min":0,"x_max":0,"o":"m 585 1100 l 454 1325 l 229 1325 l 432 1100 z m 501 -24 b 903 379 742 -24 903 113 l 903 1007 l 708 1007 l 708 381 b 501 140 708 218 625 140 b 290 381 376 140 290 218 l 290 1007 l 97 1007 l 97 379 b 501 -24 97 113 258 -24 z "},"Ű":{"ha":999,"x_min":0,"x_max":0,"o":"m 436 1100 l 560 1325 l 379 1325 l 301 1100 z m 699 1100 l 840 1325 l 660 1325 l 564 1100 z m 501 -24 b 903 379 742 -24 903 113 l 903 1007 l 708 1007 l 708 381 b 501 140 708 218 625 140 b 290 381 376 140 290 218 l 290 1007 l 97 1007 l 97 379 b 501 -24 97 113 258 -24 z "},"Ū":{"ha":999,"x_min":0,"x_max":0,"o":"m 747 1114 l 747 1247 l 250 1247 l 250 1114 z m 501 -24 b 903 379 742 -24 903 113 l 903 1007 l 708 1007 l 708 381 b 501 140 708 218 625 140 b 290 381 376 140 290 218 l 290 1007 l 97 1007 l 97 379 b 501 -24 97 113 258 -24 z "},"Ų":{"ha":999,"x_min":0,"x_max":0,"o":"m 708 381 b 501 140 708 218 625 140 b 290 381 376 140 290 218 l 290 1007 l 97 1007 l 97 379 b 460 -22 97 128 240 -7 b 394 -161 418 -64 394 -110 b 549 -286 394 -235 449 -286 b 633 -279 576 -286 606 -285 l 633 -174 l 615 -174 b 546 -126 571 -174 546 -158 b 614 -12 546 -85 569 -43 b 903 379 790 25 903 157 l 903 1007 l 708 1007 z "},"Ů":{"ha":999,"x_min":0,"x_max":0,"o":"m 500 1093 b 667 1256 597 1093 667 1160 b 500 1417 667 1350 597 1417 b 331 1256 401 1417 331 1350 b 500 1093 331 1160 401 1093 z m 500 1183 b 429 1256 458 1183 429 1214 b 500 1325 429 1296 458 1325 b 569 1256 540 1325 569 1296 b 500 1183 569 1214 540 1183 z m 501 -24 b 903 379 742 -24 903 113 l 903 1007 l 708 1007 l 708 381 b 501 140 708 218 625 140 b 290 381 376 140 290 218 l 290 1007 l 97 1007 l 97 379 b 501 -24 97 113 258 -24 z "},"Ũ":{"ha":999,"x_min":0,"x_max":0,"o":"m 614 1100 b 789 1311 725 1100 789 1169 l 649 1311 b 589 1231 646 1258 631 1231 b 386 1321 521 1231 508 1321 b 211 1110 274 1321 211 1251 l 351 1110 b 411 1190 354 1163 368 1190 b 614 1100 478 1190 490 1100 z m 501 -24 b 903 379 742 -24 903 113 l 903 1007 l 708 1007 l 708 381 b 501 140 708 218 625 140 b 290 381 376 140 290 218 l 290 1007 l 97 1007 l 97 379 b 501 -24 97 113 258 -24 z "},"V":{"ha":1010,"x_min":0,"x_max":0,"o":"m 506 251 l 221 1007 l 15 1007 l 410 0 l 600 0 l 993 1007 l 789 1007 z "},"W":{"ha":1469,"x_min":0,"x_max":0,"o":"m 1049 272 l 821 1007 l 644 1007 l 433 275 l 207 1007 l 15 1007 l 339 0 l 526 0 l 735 703 l 954 0 l 1138 0 l 1453 1007 l 1261 1007 z "},"Ẃ":{"ha":1469,"x_min":0,"x_max":0,"o":"m 781 1325 l 646 1100 l 799 1100 l 1004 1325 z m 1049 272 l 821 1007 l 644 1007 l 433 275 l 207 1007 l 15 1007 l 339 0 l 526 0 l 735 703 l 954 0 l 1138 0 l 1453 1007 l 1261 1007 z "},"Ŵ":{"ha":1469,"x_min":0,"x_max":0,"o":"m 835 1100 l 1007 1100 l 815 1325 l 656 1325 l 463 1100 l 635 1100 l 735 1208 z m 1049 272 l 821 1007 l 644 1007 l 433 275 l 207 1007 l 15 1007 l 339 0 l 526 0 l 735 703 l 954 0 l 1138 0 l 1453 1007 l 1261 1007 z "},"Ẅ":{"ha":1469,"x_min":0,"x_max":0,"o":"m 546 1101 b 651 1203 603 1101 651 1144 b 546 1304 651 1260 604 1304 b 440 1203 486 1304 440 1260 b 546 1101 440 1144 486 1101 z m 925 1101 b 1029 1203 982 1101 1029 1144 b 925 1304 1029 1260 983 1304 b 818 1203 865 1304 818 1260 b 925 1101 818 1144 865 1101 z m 1049 272 l 821 1007 l 644 1007 l 433 275 l 207 1007 l 15 1007 l 339 0 l 526 0 l 735 703 l 954 0 l 1138 0 l 1453 1007 l 1261 1007 z "},"Ẁ":{"ha":1469,"x_min":0,"x_max":0,"o":"m 690 1325 l 465 1325 l 668 1100 l 821 1100 z m 1049 272 l 821 1007 l 644 1007 l 433 275 l 207 1007 l 15 1007 l 339 0 l 526 0 l 735 703 l 954 0 l 1138 0 l 1453 1007 l 1261 1007 z "},"X":{"ha":986,"x_min":0,"x_max":0,"o":"m 613 513 l 942 1007 l 724 1007 l 503 663 l 274 1007 l 44 1007 l 375 526 l 18 0 l 236 0 l 485 375 l 739 0 l 968 0 z "},"Y":{"ha":936,"x_min":0,"x_max":0,"o":"m 711 1007 l 475 583 l 233 1007 l 15 1007 l 371 401 l 371 0 l 565 0 l 565 401 l 921 1007 z "},"Ý":{"ha":936,"x_min":0,"x_max":0,"o":"m 514 1325 l 379 1100 l 532 1100 l 738 1325 z m 711 1007 l 475 583 l 233 1007 l 15 1007 l 371 401 l 371 0 l 565 0 l 565 401 l 921 1007 z "},"Ŷ":{"ha":936,"x_min":0,"x_max":0,"o":"m 568 1100 l 740 1100 l 549 1325 l 389 1325 l 196 1100 l 368 1100 l 468 1208 z m 711 1007 l 475 583 l 233 1007 l 15 1007 l 371 401 l 371 0 l 565 0 l 565 401 l 921 1007 z "},"Ÿ":{"ha":936,"x_min":0,"x_max":0,"o":"m 279 1101 b 385 1203 336 1101 385 1144 b 279 1304 385 1260 338 1304 b 174 1203 219 1304 174 1260 b 279 1101 174 1144 219 1101 z m 658 1101 b 763 1203 715 1101 763 1144 b 658 1304 763 1260 717 1304 b 551 1203 599 1304 551 1260 b 658 1101 551 1144 599 1101 z m 711 1007 l 475 583 l 233 1007 l 15 1007 l 371 401 l 371 0 l 565 0 l 565 401 l 921 1007 z "},"Ỳ":{"ha":936,"x_min":0,"x_max":0,"o":"m 424 1325 l 199 1325 l 401 1100 l 554 1100 z m 711 1007 l 475 583 l 233 1007 l 15 1007 l 371 401 l 371 0 l 565 0 l 565 401 l 921 1007 z "},"Ȳ":{"ha":936,"x_min":0,"x_max":0,"o":"m 219 1247 l 219 1114 l 717 1114 l 717 1247 z m 711 1007 l 475 583 l 233 1007 l 15 1007 l 371 401 l 371 0 l 565 0 l 565 401 l 921 1007 z "},"Ỹ":{"ha":936,"x_min":0,"x_max":0,"o":"m 381 1190 b 583 1100 447 1190 460 1100 b 758 1311 694 1100 758 1169 l 618 1311 b 558 1231 615 1258 600 1231 b 356 1321 490 1231 478 1321 b 181 1110 243 1321 181 1251 l 321 1110 b 381 1190 324 1163 338 1190 z m 711 1007 l 475 583 l 233 1007 l 15 1007 l 371 401 l 371 0 l 565 0 l 565 401 l 921 1007 z "},"Z":{"ha":906,"x_min":0,"x_max":0,"o":"m 836 883 l 836 1007 l 67 1007 l 67 844 l 579 844 l 60 124 l 60 0 l 846 0 l 846 163 l 315 163 z "},"Ź":{"ha":906,"x_min":0,"x_max":0,"o":"m 497 1325 l 363 1100 l 515 1100 l 721 1325 z m 836 883 l 836 1007 l 67 1007 l 67 844 l 579 844 l 60 124 l 60 0 l 846 0 l 846 163 l 315 163 z "},"Ž":{"ha":906,"x_min":0,"x_max":0,"o":"m 724 1325 l 551 1325 l 451 1217 l 351 1325 l 179 1325 l 372 1100 l 532 1100 z m 836 883 l 836 1007 l 67 1007 l 67 844 l 579 844 l 60 124 l 60 0 l 846 0 l 846 163 l 315 163 z "},"Ż":{"ha":906,"x_min":0,"x_max":0,"o":"m 451 1101 b 568 1214 514 1101 568 1150 b 451 1326 568 1278 517 1326 b 335 1214 386 1326 335 1278 b 451 1101 335 1150 386 1101 z m 836 883 l 836 1007 l 67 1007 l 67 844 l 579 844 l 60 124 l 60 0 l 846 0 l 846 163 l 315 163 z "},"a":{"ha":840,"x_min":0,"x_max":0,"o":"m 757 0 b 744 168 750 51 744 119 l 744 488 b 417 765 744 664 624 765 b 85 524 226 765 101 681 l 267 524 b 417 622 278 574 319 622 b 561 493 510 622 561 572 l 561 472 b 467 460 538 467 508 464 l 325 444 b 61 222 147 425 61 351 b 332 -19 61 76 171 -19 b 578 93 440 -19 525 18 l 586 0 z m 374 119 b 244 221 294 119 244 164 b 342 311 244 292 317 308 l 467 326 b 561 351 504 331 536 339 l 561 299 b 374 119 561 186 479 119 z "},"á":{"ha":840,"x_min":0,"x_max":0,"o":"m 464 1089 l 329 864 l 482 864 l 688 1089 z m 757 0 b 744 168 750 51 744 119 l 744 488 b 417 765 744 664 624 765 b 85 524 226 765 101 681 l 267 524 b 417 622 278 574 319 622 b 561 493 510 622 561 572 l 561 472 b 467 460 538 467 508 464 l 325 444 b 61 222 147 425 61 351 b 332 -19 61 76 171 -19 b 578 93 440 -19 525 18 l 586 0 z m 374 119 b 244 221 294 119 244 164 b 342 311 244 292 317 308 l 467 326 b 561 351 504 331 536 339 l 561 299 b 374 119 561 186 479 119 z "},"ă":{"ha":840,"x_min":0,"x_max":0,"o":"m 413 861 b 660 1081 568 861 658 938 l 510 1081 b 415 982 507 1013 472 982 b 318 1081 356 982 321 1013 l 169 1081 b 413 861 171 938 271 861 z m 757 0 b 744 168 750 51 744 119 l 744 488 b 417 765 744 664 624 765 b 85 524 226 765 101 681 l 267 524 b 417 622 278 574 319 622 b 561 493 510 622 561 572 l 561 472 b 467 460 538 467 508 464 l 325 444 b 61 222 147 425 61 351 b 332 -19 61 76 171 -19 b 578 93 440 -19 525 18 l 586 0 z m 374 119 b 244 221 294 119 244 164 b 342 311 244 292 317 308 l 467 326 b 561 351 504 331 536 339 l 561 299 b 374 119 561 186 479 119 z "},"ǎ":{"ha":840,"x_min":0,"x_max":0,"o":"m 686 1089 l 514 1089 l 414 981 l 314 1089 l 142 1089 l 335 864 l 494 864 z m 757 0 b 744 168 750 51 744 119 l 744 488 b 417 765 744 664 624 765 b 85 524 226 765 101 681 l 267 524 b 417 622 278 574 319 622 b 561 493 510 622 561 572 l 561 472 b 467 460 538 467 508 464 l 325 444 b 61 222 147 425 61 351 b 332 -19 61 76 171 -19 b 578 93 440 -19 525 18 l 586 0 z m 374 119 b 244 221 294 119 244 164 b 342 311 244 292 317 308 l 467 326 b 561 351 504 331 536 339 l 561 299 b 374 119 561 186 479 119 z "},"â":{"ha":840,"x_min":0,"x_max":0,"o":"m 514 864 l 686 864 l 494 1089 l 335 1089 l 142 864 l 314 864 l 414 972 z m 757 0 b 744 168 750 51 744 119 l 744 488 b 417 765 744 664 624 765 b 85 524 226 765 101 681 l 267 524 b 417 622 278 574 319 622 b 561 493 510 622 561 572 l 561 472 b 467 460 538 467 508 464 l 325 444 b 61 222 147 425 61 351 b 332 -19 61 76 171 -19 b 578 93 440 -19 525 18 l 586 0 z m 374 119 b 244 221 294 119 244 164 b 342 311 244 292 317 308 l 467 326 b 561 351 504 331 536 339 l 561 299 b 374 119 561 186 479 119 z "},"ä":{"ha":840,"x_min":0,"x_max":0,"o":"m 239 865 b 344 967 296 865 344 908 b 239 1068 344 1024 297 1068 b 133 967 179 1068 133 1024 b 239 865 133 908 179 865 z m 590 865 b 694 967 647 865 694 908 b 590 1068 694 1024 649 1068 b 483 967 531 1068 483 1024 b 590 865 483 908 531 865 z m 757 0 b 744 168 750 51 744 119 l 744 488 b 417 765 744 664 624 765 b 85 524 226 765 101 681 l 267 524 b 417 622 278 574 319 622 b 561 493 510 622 561 572 l 561 472 b 467 460 538 467 508 464 l 325 444 b 61 222 147 425 61 351 b 332 -19 61 76 171 -19 b 578 93 440 -19 525 18 l 586 0 z m 374 119 b 244 221 294 119 244 164 b 342 311 244 292 317 308 l 467 326 b 561 351 504 331 536 339 l 561 299 b 374 119 561 186 479 119 z "},"à":{"ha":840,"x_min":0,"x_max":0,"o":"m 368 1089 l 143 1089 l 346 864 l 499 864 z m 757 0 b 744 168 750 51 744 119 l 744 488 b 417 765 744 664 624 765 b 85 524 226 765 101 681 l 267 524 b 417 622 278 574 319 622 b 561 493 510 622 561 572 l 561 472 b 467 460 538 467 508 464 l 325 444 b 61 222 147 425 61 351 b 332 -19 61 76 171 -19 b 578 93 440 -19 525 18 l 586 0 z m 374 119 b 244 221 294 119 244 164 b 342 311 244 292 317 308 l 467 326 b 561 351 504 331 536 339 l 561 299 b 374 119 561 186 479 119 z "},"ā":{"ha":840,"x_min":0,"x_max":0,"o":"m 165 1011 l 165 878 l 663 878 l 663 1011 z m 757 0 b 744 168 750 51 744 119 l 744 488 b 417 765 744 664 624 765 b 85 524 226 765 101 681 l 267 524 b 417 622 278 574 319 622 b 561 493 510 622 561 572 l 561 472 b 467 460 538 467 508 464 l 325 444 b 61 222 147 425 61 351 b 332 -19 61 76 171 -19 b 578 93 440 -19 525 18 l 586 0 z m 374 119 b 244 221 294 119 244 164 b 342 311 244 292 317 308 l 467 326 b 561 351 504 331 536 339 l 561 299 b 374 119 561 186 479 119 z "},"ą":{"ha":840,"x_min":0,"x_max":0,"o":"m 757 0 b 744 168 750 51 744 119 l 744 488 b 417 765 744 664 624 765 b 85 524 226 765 101 681 l 267 524 b 417 622 278 574 319 622 b 561 493 510 622 561 572 l 561 472 b 467 460 538 467 508 464 l 325 444 b 61 222 147 425 61 351 b 332 -19 61 76 171 -19 b 578 93 440 -19 525 18 l 586 1 b 496 -161 529 -46 496 -100 b 650 -286 496 -235 550 -286 b 735 -279 678 -286 707 -285 l 735 -174 l 717 -174 b 647 -126 672 -174 647 -158 b 735 0 647 -79 678 -32 z m 374 119 b 244 221 294 119 244 164 b 342 311 244 292 317 308 l 467 326 b 561 351 504 331 536 339 l 561 299 b 374 119 561 186 479 119 z "},"å":{"ha":840,"x_min":0,"x_max":0,"o":"m 414 857 b 581 1019 511 857 581 924 b 414 1181 581 1114 511 1181 b 244 1019 315 1181 244 1114 b 414 857 244 924 315 857 z m 414 1089 b 483 1019 454 1089 483 1060 b 414 947 483 978 454 947 b 343 1019 372 947 343 978 b 414 1089 343 1060 372 1089 z m 757 0 b 744 168 750 51 744 119 l 744 488 b 417 765 744 664 624 765 b 85 524 226 765 101 681 l 267 524 b 417 622 278 574 319 622 b 561 493 510 622 561 572 l 561 472 b 467 460 538 467 508 464 l 325 444 b 61 222 147 425 61 351 b 332 -19 61 76 171 -19 b 578 93 440 -19 525 18 l 586 0 z m 374 119 b 244 221 294 119 244 164 b 342 311 244 292 317 308 l 467 326 b 561 351 504 331 536 339 l 561 299 b 374 119 561 186 479 119 z "},"ã":{"ha":840,"x_min":0,"x_max":0,"o":"m 325 954 b 528 864 392 954 404 864 b 703 1075 639 864 703 933 l 563 1075 b 503 994 560 1022 544 994 b 300 1085 435 994 422 1085 b 125 874 188 1085 125 1015 l 265 874 b 325 954 268 926 282 954 z m 757 0 b 744 168 750 51 744 119 l 744 488 b 417 765 744 664 624 765 b 85 524 226 765 101 681 l 267 524 b 417 622 278 574 319 622 b 561 493 510 622 561 572 l 561 472 b 467 460 538 467 508 464 l 325 444 b 61 222 147 425 61 351 b 332 -19 61 76 171 -19 b 578 93 440 -19 525 18 l 586 0 z m 374 119 b 244 221 294 119 244 164 b 342 311 244 292 317 308 l 467 326 b 561 351 504 331 536 339 l 561 299 b 374 119 561 186 479 119 z "},"æ":{"ha":1347,"x_min":0,"x_max":0,"o":"m 931 763 b 676 658 829 763 740 725 b 417 765 625 728 536 765 b 85 524 226 765 101 681 l 267 524 b 417 622 278 574 319 622 b 561 493 510 622 561 572 l 561 472 b 467 460 538 467 508 464 l 325 444 b 61 222 147 425 61 351 b 332 -19 61 76 171 -19 b 638 124 474 -19 581 29 b 936 -24 703 32 808 -24 b 1283 207 1110 -24 1235 69 l 1097 207 b 935 121 1068 154 1011 121 b 732 315 824 121 744 197 l 1290 315 b 931 763 1324 568 1178 763 z m 931 618 b 1118 447 1043 618 1106 550 l 733 447 b 931 618 749 547 824 618 z m 374 119 b 244 222 294 119 244 164 b 342 311 244 293 317 308 l 467 326 b 561 351 504 331 536 339 l 561 299 b 374 119 561 186 479 119 z "},"b":{"ha":928,"x_min":0,"x_max":0,"o":"m 524 763 b 285 656 422 763 342 722 l 285 1007 l 100 1007 l 100 0 l 281 0 l 281 92 b 524 -21 338 21 421 -21 b 875 372 736 -21 875 146 b 524 763 875 610 725 763 z m 485 128 b 285 371 358 128 285 219 b 485 613 285 522 358 613 b 683 371 610 613 683 522 b 485 128 683 219 610 128 z "},"c":{"ha":846,"x_min":0,"x_max":0,"o":"m 444 -24 b 796 238 621 -24 757 81 l 618 238 b 444 128 589 171 532 128 b 244 371 318 128 244 218 b 444 613 244 522 318 613 b 619 499 533 613 590 569 l 796 499 b 444 764 757 658 621 764 b 53 371 213 764 53 599 b 444 -24 53 143 213 -24 z "},"ć":{"ha":846,"x_min":0,"x_max":0,"o":"m 503 864 l 708 1089 l 485 1089 l 350 864 z m 444 -24 b 796 238 621 -24 757 81 l 618 238 b 444 128 589 171 532 128 b 244 371 318 128 244 218 b 444 613 244 522 318 613 b 619 499 533 613 590 569 l 796 499 b 444 764 757 658 621 764 b 53 371 213 764 53 599 b 444 -24 53 143 213 -24 z "},"č":{"ha":846,"x_min":0,"x_max":0,"o":"m 707 1089 l 535 1089 l 435 981 l 335 1089 l 163 1089 l 356 864 l 515 864 z m 444 128 b 244 371 318 128 244 218 b 444 613 244 522 318 613 b 619 499 533 613 590 569 l 796 499 b 444 764 757 658 621 764 b 53 371 213 764 53 599 b 444 -24 53 143 213 -24 b 796 238 621 -24 757 81 l 618 238 b 444 128 589 171 532 128 z "},"ç":{"ha":846,"x_min":0,"x_max":0,"o":"m 444 128 b 244 371 318 128 244 218 b 444 613 244 522 318 613 b 619 499 533 613 590 569 l 796 499 b 444 764 757 658 621 764 b 53 371 213 764 53 599 b 379 -19 53 165 183 10 l 338 -81 l 365 -133 l 396 -133 b 440 -164 429 -133 440 -143 b 382 -192 440 -185 419 -192 b 317 -187 360 -192 344 -192 l 317 -278 b 403 -285 347 -283 374 -285 b 574 -171 525 -285 574 -243 b 449 -71 574 -110 524 -74 l 485 -22 b 796 238 642 -7 760 93 l 618 238 b 444 128 589 171 532 128 z "},"ĉ":{"ha":846,"x_min":0,"x_max":0,"o":"m 535 864 l 707 864 l 515 1089 l 356 1089 l 163 864 l 335 864 l 435 972 z m 444 128 b 244 371 318 128 244 218 b 444 613 244 522 318 613 b 619 499 533 613 590 569 l 796 499 b 444 764 757 658 621 764 b 53 371 213 764 53 599 b 444 -24 53 143 213 -24 b 796 238 621 -24 757 81 l 618 238 b 444 128 589 171 532 128 z "},"ċ":{"ha":846,"x_min":0,"x_max":0,"o":"m 435 865 b 551 978 497 865 551 914 b 435 1090 551 1042 500 1090 b 318 978 369 1090 318 1042 b 435 865 318 914 369 865 z m 444 -24 b 796 238 621 -24 757 81 l 618 238 b 444 128 589 171 532 128 b 244 371 318 128 244 218 b 444 613 244 522 318 613 b 619 499 533 613 590 569 l 796 499 b 444 764 757 658 621 764 b 53 371 213 764 53 599 b 444 -24 53 143 213 -24 z "},"d":{"ha":928,"x_min":0,"x_max":0,"o":"m 643 656 b 404 763 586 722 506 763 b 53 372 203 763 53 610 b 404 -21 53 146 192 -21 b 649 93 508 -21 592 21 l 649 0 l 829 0 l 829 1007 l 643 1007 z m 444 128 b 244 371 318 128 244 219 b 444 613 244 522 318 613 b 643 371 569 613 643 522 b 444 128 643 219 569 128 z "},"ð":{"ha":869,"x_min":0,"x_max":0,"o":"m 660 878 l 660 1018 l 474 929 l 403 1007 l 158 1007 b 317 854 207 964 261 913 l 181 789 l 181 647 l 407 756 b 529 600 449 707 490 654 b 393 621 492 613 444 621 b 53 304 214 621 53 500 b 435 -24 53 108 221 -24 b 817 331 649 -24 817 113 b 558 829 817 465 753 599 z m 436 122 b 244 306 322 122 244 197 b 435 486 244 413 319 486 b 625 306 547 486 625 413 b 436 122 625 201 551 122 z "},"ď":{"ha":928,"x_min":0,"x_max":0,"o":"m 643 656 b 404 763 586 722 506 763 b 53 372 203 763 53 610 b 404 -21 53 146 192 -21 b 649 93 508 -21 592 21 l 649 0 l 829 0 l 829 1007 l 643 1007 z m 890 682 l 1013 682 l 1063 1007 l 899 1007 z m 444 128 b 244 371 318 128 244 219 b 444 613 244 522 318 613 b 643 371 569 613 643 522 b 444 128 643 219 569 128 z "},"đ":{"ha":928,"x_min":0,"x_max":0,"o":"m 829 933 l 829 1007 l 643 1007 l 643 933 l 469 933 l 469 800 l 643 800 l 643 656 b 404 763 586 722 506 763 b 53 372 203 763 53 610 b 404 -21 53 146 192 -21 b 649 93 508 -21 592 21 l 649 0 l 829 0 l 829 800 l 924 800 l 924 933 z m 444 128 b 244 371 318 128 244 219 b 444 613 244 522 318 613 b 643 371 569 613 643 522 b 444 128 643 219 569 128 z "},"e":{"ha":853,"x_min":0,"x_max":0,"o":"m 436 763 b 53 365 217 763 53 600 b 442 -24 53 138 215 -24 b 788 207 614 -24 740 69 l 603 207 b 440 121 572 154 517 121 b 236 315 329 121 249 197 l 796 315 b 436 763 829 568 683 763 z m 436 618 b 622 447 547 618 610 550 l 238 447 b 436 618 253 547 328 618 z "},"é":{"ha":853,"x_min":0,"x_max":0,"o":"m 478 1089 l 343 864 l 496 864 l 701 1089 z m 436 763 b 53 365 217 763 53 600 b 442 -24 53 138 215 -24 b 788 207 614 -24 740 69 l 603 207 b 440 121 572 154 517 121 b 236 315 329 121 249 197 l 796 315 b 436 763 829 568 683 763 z m 436 618 b 622 447 547 618 610 550 l 238 447 b 436 618 253 547 328 618 z "},"ĕ":{"ha":853,"x_min":0,"x_max":0,"o":"m 426 861 b 674 1081 582 861 672 938 l 524 1081 b 429 982 521 1013 486 982 b 332 1081 369 982 335 1013 l 183 1081 b 426 861 185 938 285 861 z m 436 763 b 53 365 217 763 53 600 b 442 -24 53 138 215 -24 b 788 207 614 -24 740 69 l 603 207 b 440 121 572 154 517 121 b 236 315 329 121 249 197 l 796 315 b 436 763 829 568 683 763 z m 436 618 b 622 447 547 618 610 550 l 238 447 b 436 618 253 547 328 618 z "},"ě":{"ha":853,"x_min":0,"x_max":0,"o":"m 700 1089 l 528 1089 l 428 981 l 328 1089 l 156 1089 l 349 864 l 508 864 z m 436 763 b 53 365 217 763 53 600 b 442 -24 53 138 215 -24 b 788 207 614 -24 740 69 l 603 207 b 440 121 572 154 517 121 b 236 315 329 121 249 197 l 796 315 b 436 763 829 568 683 763 z m 436 618 b 622 447 547 618 610 550 l 238 447 b 436 618 253 547 328 618 z "},"ê":{"ha":853,"x_min":0,"x_max":0,"o":"m 528 864 l 700 864 l 508 1089 l 349 1089 l 156 864 l 328 864 l 428 972 z m 436 763 b 53 365 217 763 53 600 b 442 -24 53 138 215 -24 b 788 207 614 -24 740 69 l 603 207 b 440 121 572 154 517 121 b 236 315 329 121 249 197 l 796 315 b 436 763 829 568 683 763 z m 436 618 b 622 447 547 618 610 550 l 238 447 b 436 618 253 547 328 618 z "},"ë":{"ha":853,"x_min":0,"x_max":0,"o":"m 253 865 b 358 967 310 865 358 908 b 253 1068 358 1024 311 1068 b 147 967 193 1068 147 1024 b 253 865 147 908 193 865 z m 604 865 b 708 967 661 865 708 908 b 604 1068 708 1024 663 1068 b 497 967 544 1068 497 1024 b 604 865 497 908 544 865 z m 436 763 b 53 365 217 763 53 600 b 442 -24 53 138 215 -24 b 788 207 614 -24 740 69 l 603 207 b 440 121 572 154 517 121 b 236 315 329 121 249 197 l 796 315 b 436 763 829 568 683 763 z m 436 618 b 622 447 547 618 610 550 l 238 447 b 436 618 253 547 328 618 z "},"ė":{"ha":853,"x_min":0,"x_max":0,"o":"m 428 865 b 544 978 490 865 544 914 b 428 1090 544 1042 493 1090 b 311 978 363 1090 311 1042 b 428 865 311 914 363 865 z m 436 763 b 53 365 217 763 53 600 b 442 -24 53 138 215 -24 b 788 207 614 -24 740 69 l 603 207 b 440 121 572 154 517 121 b 236 315 329 121 249 197 l 796 315 b 436 763 829 568 683 763 z m 436 618 b 622 447 547 618 610 550 l 238 447 b 436 618 253 547 328 618 z "},"è":{"ha":853,"x_min":0,"x_max":0,"o":"m 382 1089 l 157 1089 l 360 864 l 513 864 z m 436 763 b 53 365 217 763 53 600 b 442 -24 53 138 215 -24 b 788 207 614 -24 740 69 l 603 207 b 440 121 572 154 517 121 b 236 315 329 121 249 197 l 796 315 b 436 763 829 568 683 763 z m 436 618 b 622 447 547 618 610 550 l 238 447 b 436 618 253 547 328 618 z "},"ē":{"ha":853,"x_min":0,"x_max":0,"o":"m 179 1011 l 179 878 l 676 878 l 676 1011 z m 436 763 b 53 365 217 763 53 600 b 442 -24 53 138 215 -24 b 788 207 614 -24 740 69 l 603 207 b 440 121 572 154 517 121 b 236 315 329 121 249 197 l 796 315 b 436 763 829 568 683 763 z m 436 618 b 622 447 547 618 610 550 l 238 447 b 436 618 253 547 328 618 z "},"ę":{"ha":853,"x_min":0,"x_max":0,"o":"m 436 763 b 53 365 217 763 53 600 b 385 -19 53 157 189 4 b 318 -161 343 -62 318 -110 b 472 -286 318 -235 372 -286 b 557 -279 500 -286 529 -285 l 557 -174 l 539 -174 b 469 -126 494 -174 469 -158 b 535 -14 469 -86 492 -44 b 788 207 660 14 750 96 l 603 207 b 440 121 572 154 517 121 b 236 315 329 121 249 197 l 796 315 b 436 763 829 568 683 763 z m 436 618 b 622 447 547 618 610 550 l 238 447 b 436 618 253 547 328 618 z "},"ẽ":{"ha":853,"x_min":0,"x_max":0,"o":"m 339 954 b 542 864 406 954 418 864 b 717 1075 653 864 717 933 l 576 1075 b 517 994 574 1022 558 994 b 314 1085 449 994 436 1085 b 139 874 201 1085 139 1015 l 279 874 b 339 954 282 926 296 954 z m 436 763 b 53 365 217 763 53 600 b 442 -24 53 138 215 -24 b 788 207 614 -24 740 69 l 603 207 b 440 121 572 154 517 121 b 236 315 329 121 249 197 l 796 315 b 436 763 829 568 683 763 z m 436 618 b 622 447 547 618 610 550 l 238 447 b 436 618 253 547 328 618 z "},"f":{"ha":581,"x_min":0,"x_max":0,"o":"m 556 857 l 556 1007 l 401 1007 b 168 803 222 1007 168 943 l 168 742 l 24 742 l 24 590 l 168 590 l 168 0 l 354 0 l 354 590 l 540 590 l 540 742 l 354 742 l 354 779 b 433 857 354 849 374 857 z "},"g":{"ha":919,"x_min":0,"x_max":0,"o":"m 640 657 b 400 763 585 724 503 763 b 53 397 201 763 53 618 b 400 29 53 185 190 29 b 635 128 499 29 579 65 l 635 54 b 447 -129 635 -54 569 -129 b 267 -26 356 -129 288 -94 l 86 -26 b 450 -272 117 -190 260 -272 b 821 74 683 -272 821 -137 l 821 742 l 640 742 z m 436 169 b 236 396 311 169 236 254 b 436 621 236 538 311 621 b 635 396 561 621 635 538 b 436 169 635 254 561 169 z "},"ğ":{"ha":919,"x_min":0,"x_max":0,"o":"m 435 861 b 682 1081 590 861 681 938 l 532 1081 b 438 982 529 1013 494 982 b 340 1081 378 982 343 1013 l 192 1081 b 435 861 193 938 293 861 z m 640 657 b 400 763 585 724 503 763 b 53 397 201 763 53 618 b 400 29 53 185 190 29 b 635 128 499 29 579 65 l 635 54 b 447 -129 635 -54 569 -129 b 267 -26 356 -129 288 -94 l 86 -26 b 450 -272 117 -190 260 -272 b 821 74 683 -272 821 -137 l 821 742 l 640 742 z m 436 169 b 236 396 311 169 236 254 b 436 621 236 538 311 621 b 635 396 561 621 635 538 b 436 169 635 254 561 169 z "},"ǧ":{"ha":919,"x_min":0,"x_max":0,"o":"m 708 1089 l 536 1089 l 436 981 l 336 1089 l 164 1089 l 357 864 l 517 864 z m 640 657 b 400 763 585 724 503 763 b 53 397 201 763 53 618 b 400 29 53 185 190 29 b 635 128 499 29 579 65 l 635 54 b 447 -129 635 -54 569 -129 b 267 -26 356 -129 288 -94 l 86 -26 b 450 -272 117 -190 260 -272 b 821 74 683 -272 821 -137 l 821 742 l 640 742 z m 436 169 b 236 396 311 169 236 254 b 436 621 236 538 311 621 b 635 396 561 621 635 538 b 436 169 635 254 561 169 z "},"ĝ":{"ha":919,"x_min":0,"x_max":0,"o":"m 536 864 l 708 864 l 517 1089 l 357 1089 l 164 864 l 336 864 l 436 972 z m 640 657 b 400 763 585 724 503 763 b 53 397 201 763 53 618 b 400 29 53 185 190 29 b 635 128 499 29 579 65 l 635 54 b 447 -129 635 -54 569 -129 b 267 -26 356 -129 288 -94 l 86 -26 b 450 -272 117 -190 260 -272 b 821 74 683 -272 821 -137 l 821 742 l 640 742 z m 436 169 b 236 396 311 169 236 254 b 436 621 236 538 311 621 b 635 396 561 621 635 538 b 436 169 635 254 561 169 z "},"ģ":{"ha":919,"x_min":0,"x_max":0,"o":"m 418 1089 l 342 864 l 514 864 l 550 1089 z m 640 657 b 400 763 585 724 503 763 b 53 397 201 763 53 618 b 400 29 53 185 190 29 b 635 128 499 29 579 65 l 635 54 b 447 -129 635 -54 569 -129 b 267 -26 356 -129 288 -94 l 86 -26 b 450 -272 117 -190 260 -272 b 821 74 683 -272 821 -137 l 821 742 l 640 742 z m 436 169 b 236 396 311 169 236 254 b 436 621 236 538 311 621 b 635 396 561 621 635 538 b 436 169 635 254 561 169 z "},"ġ":{"ha":919,"x_min":0,"x_max":0,"o":"m 436 865 b 553 978 499 865 553 914 b 436 1090 553 1042 501 1090 b 319 978 371 1090 319 1042 b 436 865 319 914 371 865 z m 640 657 b 400 763 585 724 503 763 b 53 397 201 763 53 618 b 400 29 53 185 190 29 b 635 128 499 29 579 65 l 635 54 b 447 -129 635 -54 569 -129 b 267 -26 356 -129 288 -94 l 86 -26 b 450 -272 117 -190 260 -272 b 821 74 683 -272 821 -137 l 821 742 l 640 742 z m 436 169 b 236 396 311 169 236 254 b 436 621 236 538 311 621 b 635 396 561 621 635 538 b 436 169 635 254 561 169 z "},"h":{"ha":876,"x_min":0,"x_max":0,"o":"m 503 764 b 285 660 411 764 336 729 l 285 1007 l 100 1007 l 100 0 l 285 0 l 285 415 b 453 615 285 544 356 615 b 601 451 550 615 601 546 l 601 0 l 786 0 l 786 475 b 503 764 786 656 675 764 z "},"ħ":{"ha":876,"x_min":0,"x_max":0,"o":"m 503 764 b 285 660 411 764 336 729 l 285 800 l 458 800 l 458 933 l 285 933 l 285 1007 l 100 1007 l 100 933 l 4 933 l 4 800 l 100 800 l 100 0 l 285 0 l 285 415 b 453 615 285 544 356 615 b 601 451 550 615 601 546 l 601 0 l 786 0 l 786 475 b 503 764 786 656 675 764 z "},"ĥ":{"ha":876,"x_min":0,"x_max":0,"o":"m 464 1100 l 272 1325 l 113 1325 l -81 1100 l 92 1100 l 192 1208 l 292 1100 z m 503 764 b 285 660 411 764 336 729 l 285 1007 l 100 1007 l 100 0 l 285 0 l 285 415 b 453 615 285 544 356 615 b 601 451 550 615 601 546 l 601 0 l 786 0 l 786 475 b 503 764 786 656 675 764 z "},"i":{"ha":385,"x_min":0,"x_max":0,"o":"m 192 865 b 308 978 254 865 308 914 b 192 1090 308 1042 257 1090 b 75 978 126 1090 75 1042 b 192 865 75 914 126 865 z m 285 0 l 285 742 l 100 742 l 100 0 z "},"ı":{"ha":385,"x_min":0,"x_max":0,"o":"m 285 0 l 285 742 l 100 742 l 100 0 z "},"í":{"ha":385,"x_min":0,"x_max":0,"o":"m 260 864 l 465 1089 l 242 1089 l 107 864 z m 285 0 l 285 742 l 100 742 l 100 0 z "},"ĭ":{"ha":385,"x_min":0,"x_max":0,"o":"m 190 861 b 438 1081 346 861 436 938 l 288 1081 b 193 982 285 1013 250 982 b 96 1081 133 982 99 1013 l -53 1081 b 190 861 -51 938 49 861 z m 285 0 l 285 742 l 100 742 l 100 0 z "},"ǐ":{"ha":385,"x_min":0,"x_max":0,"o":"m 464 1089 l 292 1089 l 192 981 l 92 1089 l -81 1089 l 113 864 l 272 864 z m 285 0 l 285 742 l 100 742 l 100 0 z "},"î":{"ha":385,"x_min":0,"x_max":0,"o":"m 113 1089 l -81 864 l 92 864 l 192 972 l 292 864 l 464 864 l 272 1089 z m 285 0 l 285 742 l 100 742 l 100 0 z "},"ï":{"ha":385,"x_min":0,"x_max":0,"o":"m 17 865 b 122 967 74 865 122 908 b 17 1068 122 1024 75 1068 b -89 967 -43 1068 -89 1024 b 17 865 -89 908 -43 865 z m 368 865 b 472 967 425 865 472 908 b 368 1068 472 1024 426 1068 b 261 967 308 1068 261 1024 b 368 865 261 908 308 865 z m 285 0 l 285 742 l 100 742 l 100 0 z "},"ị":{"ha":385,"x_min":0,"x_max":0,"o":"m 192 865 b 308 978 254 865 308 914 b 192 1090 308 1042 257 1090 b 75 978 126 1090 75 1042 b 192 865 75 914 126 865 z m 285 0 l 285 742 l 100 742 l 100 0 z m 192 -331 b 308 -218 254 -331 308 -282 b 192 -106 308 -153 257 -106 b 75 -218 126 -106 75 -153 b 192 -331 75 -282 126 -331 z "},"ì":{"ha":385,"x_min":0,"x_max":0,"o":"m 276 864 l 146 1089 l -79 1089 l 124 864 z m 285 0 l 285 742 l 100 742 l 100 0 z "},"ĳ":{"ha":775,"x_min":0,"x_max":0,"o":"m 192 865 b 308 978 254 865 308 914 b 192 1090 308 1042 257 1090 b 75 978 126 1090 75 1042 b 192 865 75 914 126 865 z m 582 865 b 697 978 644 865 697 914 b 582 1090 697 1042 646 1090 b 464 978 515 1090 464 1042 b 582 865 464 914 515 865 z m 285 0 l 285 742 l 100 742 l 100 0 z m 454 -271 b 675 -68 625 -271 675 -212 l 675 742 l 490 742 l 490 -53 b 417 -112 490 -110 472 -112 l 326 -112 l 326 -271 z "},"ī":{"ha":385,"x_min":0,"x_max":0,"o":"m 415 878 l 415 1011 l -32 1011 l -32 878 z m 285 0 l 285 742 l 100 742 l 100 0 z "},"į":{"ha":385,"x_min":0,"x_max":0,"o":"m 192 865 b 308 978 254 865 308 914 b 192 1090 308 1042 257 1090 b 75 978 126 1090 75 1042 b 192 865 75 914 126 865 z m 285 0 l 285 742 l 100 742 l 100 0 l 136 0 b 47 -161 81 -47 47 -101 b 201 -286 47 -235 101 -286 b 286 -279 229 -286 258 -285 l 286 -174 l 268 -174 b 199 -126 224 -174 199 -158 b 286 0 199 -79 229 -32 z "},"ĩ":{"ha":385,"x_min":0,"x_max":0,"o":"m 307 864 b 482 1075 418 864 482 933 l 342 1075 b 282 994 339 1022 324 994 b 79 1085 214 994 201 1085 b -96 874 -33 1085 -96 1015 l 44 874 b 104 954 47 926 61 954 b 307 864 171 954 183 864 z m 285 0 l 285 742 l 100 742 l 100 0 z "},"j":{"ha":390,"x_min":0,"x_max":0,"o":"m 197 865 b 314 978 260 865 314 914 b 197 1090 314 1042 263 1090 b 81 978 132 1090 81 1042 b 197 865 81 914 132 865 z m 69 -271 b 292 -68 240 -271 292 -212 l 292 742 l 106 742 l 106 -53 b 32 -112 106 -110 88 -112 l -58 -112 l -58 -271 z "},"ȷ":{"ha":390,"x_min":0,"x_max":0,"o":"m 69 -271 b 292 -68 240 -271 292 -212 l 292 742 l 106 742 l 106 -53 b 32 -112 106 -110 88 -112 l -58 -112 l -58 -271 z "},"ĵ":{"ha":390,"x_min":0,"x_max":0,"o":"m 118 1089 l -75 864 l 97 864 l 197 972 l 297 864 l 469 864 l 278 1089 z m 106 -53 b 32 -112 106 -110 88 -112 l -58 -112 l -58 -271 l 69 -271 b 292 -68 240 -271 292 -212 l 292 742 l 106 742 z "},"k":{"ha":826,"x_min":0,"x_max":0,"o":"m 806 0 l 500 444 l 779 742 l 563 742 l 285 450 l 285 1007 l 100 1007 l 100 0 l 285 0 l 285 229 l 374 321 l 590 0 z "},"ķ":{"ha":826,"x_min":0,"x_max":0,"o":"m 779 742 l 563 742 l 285 450 l 285 1007 l 100 1007 l 100 0 l 285 0 l 285 229 l 374 321 l 590 0 l 806 0 l 500 444 z m 422 -299 l 499 -83 l 325 -83 l 289 -299 z "},"l":{"ha":385,"x_min":0,"x_max":0,"o":"m 285 0 l 285 1007 l 100 1007 l 100 0 z "},"ĺ":{"ha":385,"x_min":0,"x_max":0,"o":"m 260 1129 l 465 1354 l 242 1354 l 107 1129 z m 285 0 l 285 1007 l 100 1007 l 100 0 z "},"ľ":{"ha":385,"x_min":0,"x_max":0,"o":"m 285 0 l 285 1007 l 100 1007 l 100 0 z m 468 682 l 518 1007 l 354 1007 l 346 682 z "},"ļ":{"ha":385,"x_min":0,"x_max":0,"o":"m 285 0 l 285 1007 l 100 1007 l 100 0 z m 201 -299 l 278 -83 l 104 -83 l 68 -299 z "},"ł":{"ha":385,"x_min":0,"x_max":0,"o":"m 285 647 l 285 1007 l 100 1007 l 100 547 l 11 488 l 11 306 l 100 367 l 100 0 l 285 0 l 285 465 l 371 524 l 371 706 z "},"m":{"ha":1347,"x_min":0,"x_max":0,"o":"m 979 764 b 728 642 869 764 783 722 b 493 764 689 706 618 764 b 279 656 403 764 329 726 l 279 742 l 100 742 l 100 0 l 285 0 l 285 415 b 444 615 285 544 351 615 b 585 451 533 615 585 546 l 585 0 l 771 0 l 771 415 b 931 615 771 544 838 615 b 1071 451 1019 615 1071 546 l 1071 0 l 1257 0 l 1257 475 b 979 764 1257 656 1146 764 z "},"n":{"ha":876,"x_min":0,"x_max":0,"o":"m 503 764 b 279 653 407 764 331 726 l 279 742 l 100 742 l 100 0 l 285 0 l 285 415 b 453 615 285 544 356 615 b 601 451 550 615 601 546 l 601 0 l 786 0 l 786 475 b 503 764 786 656 675 764 z "},"ń":{"ha":876,"x_min":0,"x_max":0,"o":"m 488 1089 l 353 864 l 506 864 l 711 1089 z m 503 764 b 279 653 407 764 331 726 l 279 742 l 100 742 l 100 0 l 285 0 l 285 415 b 453 615 285 544 356 615 b 601 451 550 615 601 546 l 601 0 l 786 0 l 786 475 b 503 764 786 656 675 764 z "},"ň":{"ha":876,"x_min":0,"x_max":0,"o":"m 710 1089 l 538 1089 l 438 981 l 338 1089 l 165 1089 l 358 864 l 518 864 z m 503 764 b 279 653 407 764 331 726 l 279 742 l 100 742 l 100 0 l 285 0 l 285 415 b 453 615 285 544 356 615 b 601 451 550 615 601 546 l 601 0 l 786 0 l 786 475 b 503 764 786 656 675 764 z "},"ņ":{"ha":876,"x_min":0,"x_max":0,"o":"m 503 764 b 279 653 407 764 331 726 l 279 742 l 100 742 l 100 0 l 285 0 l 285 415 b 453 615 285 544 356 615 b 601 451 550 615 601 546 l 601 0 l 786 0 l 786 475 b 503 764 786 656 675 764 z m 447 -299 l 524 -83 l 350 -83 l 314 -299 z "},"ñ":{"ha":876,"x_min":0,"x_max":0,"o":"m 350 954 b 553 864 417 954 429 864 b 728 1075 664 864 728 933 l 588 1075 b 528 994 585 1022 569 994 b 325 1085 460 994 447 1085 b 150 874 213 1085 150 1015 l 290 874 b 350 954 293 926 307 954 z m 503 764 b 279 653 407 764 331 726 l 279 742 l 100 742 l 100 0 l 285 0 l 285 415 b 453 615 285 544 356 615 b 601 451 550 615 601 546 l 601 0 l 786 0 l 786 475 b 503 764 786 656 675 764 z "},"o":{"ha":888,"x_min":0,"x_max":0,"o":"m 444 -24 b 835 371 675 -24 835 143 b 444 764 835 599 675 764 b 53 371 213 764 53 599 b 444 -24 53 143 213 -24 z m 444 128 b 244 371 318 128 244 218 b 444 613 244 522 318 613 b 643 371 569 613 643 522 b 444 128 643 218 569 128 z "},"ó":{"ha":888,"x_min":0,"x_max":0,"o":"m 513 864 l 718 1089 l 494 1089 l 360 864 z m 444 -24 b 835 371 675 -24 835 143 b 444 764 835 599 675 764 b 53 371 213 764 53 599 b 444 -24 53 143 213 -24 z m 444 128 b 244 371 318 128 244 218 b 444 613 244 522 318 613 b 643 371 569 613 643 522 b 444 128 643 218 569 128 z "},"ŏ":{"ha":888,"x_min":0,"x_max":0,"o":"m 442 861 b 689 1081 597 861 688 938 l 539 1081 b 444 982 536 1013 501 982 b 347 1081 385 982 350 1013 l 199 1081 b 442 861 200 938 300 861 z m 444 -24 b 835 371 675 -24 835 143 b 444 764 835 599 675 764 b 53 371 213 764 53 599 b 444 -24 53 143 213 -24 z m 444 128 b 244 371 318 128 244 218 b 444 613 244 522 318 613 b 643 371 569 613 643 522 b 444 128 643 218 569 128 z "},"ǒ":{"ha":888,"x_min":0,"x_max":0,"o":"m 715 1089 l 543 1089 l 443 981 l 343 1089 l 171 1089 l 364 864 l 524 864 z m 444 764 b 53 371 213 764 53 599 b 444 -24 53 143 213 -24 b 835 371 675 -24 835 143 b 444 764 835 599 675 764 z m 444 128 b 244 371 318 128 244 218 b 444 613 244 522 318 613 b 643 371 569 613 643 522 b 444 128 643 218 569 128 z "},"ô":{"ha":888,"x_min":0,"x_max":0,"o":"m 543 864 l 715 864 l 524 1089 l 364 1089 l 171 864 l 343 864 l 443 972 z m 444 764 b 53 371 213 764 53 599 b 444 -24 53 143 213 -24 b 835 371 675 -24 835 143 b 444 764 835 599 675 764 z m 444 128 b 244 371 318 128 244 218 b 444 613 244 522 318 613 b 643 371 569 613 643 522 b 444 128 643 218 569 128 z "},"ö":{"ha":888,"x_min":0,"x_max":0,"o":"m 268 865 b 374 967 325 865 374 908 b 268 1068 374 1024 326 1068 b 163 967 208 1068 163 1024 b 268 865 163 908 208 865 z m 619 865 b 724 967 676 865 724 908 b 619 1068 724 1024 678 1068 b 513 967 560 1068 513 1024 b 619 865 513 908 560 865 z m 444 -24 b 835 371 675 -24 835 143 b 444 764 835 599 675 764 b 53 371 213 764 53 599 b 444 -24 53 143 213 -24 z m 444 128 b 244 371 318 128 244 218 b 444 613 244 522 318 613 b 643 371 569 613 643 522 b 444 128 643 218 569 128 z "},"ọ":{"ha":888,"x_min":0,"x_max":0,"o":"m 444 -24 b 835 371 675 -24 835 143 b 444 764 835 599 675 764 b 53 371 213 764 53 599 b 444 -24 53 143 213 -24 z m 444 128 b 244 371 318 128 244 218 b 444 613 244 522 318 613 b 643 371 569 613 643 522 b 444 128 643 218 569 128 z m 443 -331 b 560 -218 506 -331 560 -282 b 443 -106 560 -153 508 -106 b 326 -218 378 -106 326 -153 b 443 -331 326 -282 378 -331 z "},"ò":{"ha":888,"x_min":0,"x_max":0,"o":"m 528 864 l 397 1089 l 172 1089 l 375 864 z m 444 -24 b 835 371 675 -24 835 143 b 444 764 835 599 675 764 b 53 371 213 764 53 599 b 444 -24 53 143 213 -24 z m 444 128 b 244 371 318 128 244 218 b 444 613 244 522 318 613 b 643 371 569 613 643 522 b 444 128 643 218 569 128 z "},"ő":{"ha":888,"x_min":0,"x_max":0,"o":"m 388 864 l 511 1089 l 331 1089 l 253 864 z m 650 864 l 792 1089 l 611 1089 l 515 864 z m 444 -24 b 835 371 675 -24 835 143 b 444 764 835 599 675 764 b 53 371 213 764 53 599 b 444 -24 53 143 213 -24 z m 444 128 b 244 371 318 128 244 218 b 444 613 244 522 318 613 b 643 371 569 613 643 522 b 444 128 643 218 569 128 z "},"ō":{"ha":888,"x_min":0,"x_max":0,"o":"m 692 878 l 692 1011 l 194 1011 l 194 878 z m 444 -24 b 835 371 675 -24 835 143 b 444 764 835 599 675 764 b 53 371 213 764 53 599 b 444 -24 53 143 213 -24 z m 444 128 b 244 371 318 128 244 218 b 444 613 244 522 318 613 b 643 371 569 613 643 522 b 444 128 643 218 569 128 z "},"ø":{"ha":888,"x_min":0,"x_max":0,"o":"m 676 742 l 650 711 b 444 764 592 744 522 764 b 53 371 213 764 53 599 b 140 111 53 269 85 179 l 46 0 l 208 0 l 235 31 b 444 -24 294 -4 365 -24 b 835 371 675 -24 835 143 b 746 632 835 474 803 564 l 839 742 z m 444 613 b 549 586 485 613 519 603 l 265 249 b 244 371 251 283 244 324 b 444 613 244 522 318 613 z m 444 128 b 338 156 403 128 367 138 l 622 493 b 643 371 636 460 643 418 b 444 128 643 218 569 128 z "},"õ":{"ha":888,"x_min":0,"x_max":0,"o":"m 558 864 b 733 1075 669 864 733 933 l 593 1075 b 533 994 590 1022 575 994 b 331 1085 465 994 453 1085 b 156 874 218 1085 156 1015 l 296 874 b 356 954 299 926 313 954 b 558 864 422 954 435 864 z m 444 -24 b 835 371 675 -24 835 143 b 444 764 835 599 675 764 b 53 371 213 764 53 599 b 444 -24 53 143 213 -24 z m 444 128 b 244 371 318 128 244 218 b 444 613 244 522 318 613 b 643 371 569 613 643 522 b 444 128 643 218 569 128 z "},"œ":{"ha":1425,"x_min":0,"x_max":0,"o":"m 1008 763 b 726 628 893 763 793 713 b 444 764 663 713 564 764 b 53 371 213 764 53 599 b 444 -24 53 143 213 -24 b 725 111 563 -24 661 28 b 1014 -24 792 26 893 -24 b 1361 207 1188 -24 1313 69 l 1175 207 b 1013 121 1146 154 1089 121 b 810 315 901 121 822 197 l 1368 315 b 1008 763 1401 568 1256 763 z m 1008 618 b 1196 447 1121 618 1183 550 l 811 447 b 1008 618 826 547 901 618 z m 444 128 b 244 371 318 128 244 218 b 444 613 244 522 318 613 b 643 371 569 613 643 522 b 444 128 643 218 569 128 z "},"p":{"ha":928,"x_min":0,"x_max":0,"o":"m 524 763 b 281 650 419 763 338 721 l 281 742 l 100 742 l 100 -250 l 285 -250 l 285 86 b 524 -21 342 18 424 -21 b 875 372 736 -21 875 146 b 524 763 875 610 725 763 z m 485 128 b 285 371 358 128 285 219 b 485 613 285 522 358 613 b 683 371 610 613 683 522 b 485 128 683 219 610 128 z "},"þ":{"ha":928,"x_min":0,"x_max":0,"o":"m 524 763 b 285 656 422 763 342 722 l 285 1007 l 100 1007 l 100 -250 l 285 -250 l 285 86 b 524 -21 342 18 424 -21 b 875 372 736 -21 875 146 b 524 763 875 610 725 763 z m 485 128 b 285 371 358 128 285 219 b 485 613 285 522 358 613 b 683 371 610 613 683 522 b 485 128 683 219 610 128 z "},"q":{"ha":928,"x_min":0,"x_max":0,"o":"m 649 649 b 404 763 592 719 508 763 b 53 372 203 763 53 610 b 404 -21 53 146 192 -21 b 643 86 504 -21 586 18 l 643 -250 l 829 -250 l 829 742 l 649 742 z m 444 128 b 244 371 318 128 244 219 b 444 613 244 522 318 613 b 643 371 569 613 643 522 b 444 128 643 219 569 128 z "},"r":{"ha":563,"x_min":0,"x_max":0,"o":"m 500 753 b 279 642 401 753 326 714 l 279 742 l 100 742 l 100 0 l 285 0 l 285 381 b 490 583 285 532 346 583 l 539 583 l 539 750 b 500 753 528 751 514 753 z "},"ŕ":{"ha":563,"x_min":0,"x_max":0,"o":"m 346 1089 l 211 864 l 364 864 l 569 1089 z m 279 742 l 100 742 l 100 0 l 285 0 l 285 381 b 490 583 285 532 346 583 l 539 583 l 539 750 b 500 753 528 751 514 753 b 279 642 401 753 326 714 z "},"ř":{"ha":563,"x_min":0,"x_max":0,"o":"m 568 1089 l 396 1089 l 296 981 l 196 1089 l 24 1089 l 217 864 l 376 864 z m 279 742 l 100 742 l 100 0 l 285 0 l 285 381 b 490 583 285 532 346 583 l 539 583 l 539 750 b 500 753 528 751 514 753 b 279 642 401 753 326 714 z "},"ŗ":{"ha":563,"x_min":0,"x_max":0,"o":"m 500 753 b 279 642 401 753 326 714 l 279 742 l 100 742 l 100 0 l 285 0 l 285 381 b 490 583 285 532 346 583 l 539 583 l 539 750 b 500 753 528 751 514 753 z m 201 -299 l 278 -83 l 104 -83 l 68 -299 z "},"s":{"ha":792,"x_min":0,"x_max":0,"o":"m 406 -24 b 736 228 593 -24 736 65 b 497 451 736 381 633 439 l 376 461 b 258 543 307 467 258 489 b 390 626 258 593 308 626 b 542 525 476 626 528 590 l 721 525 b 393 764 707 676 569 764 b 72 515 203 764 72 663 b 294 307 72 386 171 318 l 421 296 b 553 210 486 290 553 274 b 407 117 553 147 489 117 b 232 232 319 117 253 150 l 47 232 b 406 -24 71 60 225 -24 z "},"ś":{"ha":792,"x_min":0,"x_max":0,"o":"m 463 864 l 668 1089 l 444 1089 l 310 864 z m 406 -24 b 736 228 593 -24 736 65 b 497 451 736 381 633 439 l 376 461 b 258 543 307 467 258 489 b 390 626 258 593 308 626 b 542 525 476 626 528 590 l 721 525 b 393 764 707 676 569 764 b 72 515 203 764 72 663 b 294 307 72 386 171 318 l 421 296 b 553 210 486 290 553 274 b 407 117 553 147 489 117 b 232 232 319 117 253 150 l 47 232 b 406 -24 71 60 225 -24 z "},"š":{"ha":792,"x_min":0,"x_max":0,"o":"m 667 1089 l 494 1089 l 394 981 l 294 1089 l 122 1089 l 315 864 l 475 864 z m 376 461 b 258 543 307 467 258 489 b 390 626 258 593 308 626 b 542 525 476 626 528 590 l 721 525 b 393 764 707 676 569 764 b 72 515 203 764 72 663 b 294 307 72 386 171 318 l 421 296 b 553 210 486 290 553 274 b 407 117 553 147 489 117 b 232 232 319 117 253 150 l 47 232 b 406 -24 71 60 225 -24 b 736 228 593 -24 736 65 b 497 451 736 381 633 439 z "},"ş":{"ha":792,"x_min":0,"x_max":0,"o":"m 736 228 b 497 451 736 381 633 439 l 376 461 b 258 543 307 467 258 489 b 390 626 258 593 308 626 b 542 525 476 626 528 590 l 721 525 b 393 764 707 676 569 764 b 72 515 203 764 72 663 b 294 307 72 386 171 318 l 421 296 b 553 210 486 290 553 274 b 407 117 553 147 489 117 b 232 232 319 117 253 150 l 47 232 b 336 -19 68 82 186 0 l 294 -81 l 322 -133 l 353 -133 b 397 -164 386 -133 397 -143 b 339 -192 397 -185 376 -192 b 274 -187 317 -192 301 -192 l 274 -278 b 360 -285 304 -283 331 -285 b 531 -171 482 -285 531 -243 b 406 -71 531 -110 481 -74 l 440 -22 b 736 228 611 -12 736 75 z "},"ŝ":{"ha":792,"x_min":0,"x_max":0,"o":"m 494 864 l 667 864 l 475 1089 l 315 1089 l 122 864 l 294 864 l 394 972 z m 376 461 b 258 543 307 467 258 489 b 390 626 258 593 308 626 b 542 525 476 626 528 590 l 721 525 b 393 764 707 676 569 764 b 72 515 203 764 72 663 b 294 307 72 386 171 318 l 421 296 b 553 210 486 290 553 274 b 407 117 553 147 489 117 b 232 232 319 117 253 150 l 47 232 b 406 -24 71 60 225 -24 b 736 228 593 -24 736 65 b 497 451 736 381 633 439 z "},"ș":{"ha":792,"x_min":0,"x_max":0,"o":"m 406 -24 b 736 228 593 -24 736 65 b 497 451 736 381 633 439 l 376 461 b 258 543 307 467 258 489 b 390 626 258 593 308 626 b 542 525 476 626 528 590 l 721 525 b 393 764 707 676 569 764 b 72 515 203 764 72 663 b 294 307 72 386 171 318 l 421 296 b 553 210 486 290 553 274 b 407 117 553 147 489 117 b 232 232 319 117 253 150 l 47 232 b 406 -24 71 60 225 -24 z m 404 -299 l 481 -83 l 307 -83 l 271 -299 z "},"ß":{"ha":904,"x_min":0,"x_max":0,"o":"m 669 533 b 811 754 758 574 811 650 b 454 1025 811 925 674 1025 b 100 703 250 1025 100 938 l 100 0 l 285 0 l 285 690 b 451 874 285 774 311 874 b 622 729 565 874 622 811 b 478 590 622 647 567 590 l 406 590 l 406 443 l 510 443 b 660 299 601 443 660 383 b 497 150 660 208 599 150 l 406 150 l 406 0 l 514 0 b 850 278 713 0 850 106 b 669 533 850 401 781 493 z "},"t":{"ha":606,"x_min":0,"x_max":0,"o":"m 447 158 b 360 238 381 158 360 163 l 360 590 l 549 590 l 549 742 l 360 742 l 360 936 l 174 936 l 174 742 l 24 742 l 24 590 l 174 590 l 174 215 b 407 0 174 63 228 0 l 565 0 l 565 158 z "},"ť":{"ha":606,"x_min":0,"x_max":0,"o":"m 429 1007 l 421 796 l 560 796 l 593 1007 z m 360 590 l 549 590 l 549 742 l 360 742 l 360 936 l 174 936 l 174 742 l 24 742 l 24 590 l 174 590 l 174 215 b 407 0 174 63 228 0 l 565 0 l 565 158 l 447 158 b 360 238 381 158 360 163 z "},"ţ":{"ha":606,"x_min":0,"x_max":0,"o":"m 565 158 l 447 158 b 360 238 381 158 360 163 l 360 590 l 549 590 l 549 742 l 360 742 l 360 936 l 174 936 l 174 742 l 24 742 l 24 590 l 174 590 l 174 215 b 315 7 174 93 208 28 l 256 -81 l 283 -133 l 314 -133 b 358 -164 347 -133 358 -143 b 300 -192 358 -185 338 -192 b 235 -187 278 -192 263 -192 l 235 -278 b 321 -285 265 -283 292 -285 b 492 -171 443 -285 492 -243 b 367 -71 492 -110 442 -74 l 418 0 l 565 0 z "},"ț":{"ha":606,"x_min":0,"x_max":0,"o":"m 447 158 b 360 238 381 158 360 163 l 360 590 l 549 590 l 549 742 l 360 742 l 360 936 l 174 936 l 174 742 l 24 742 l 24 590 l 174 590 l 174 215 b 407 0 174 63 228 0 l 565 0 l 565 158 z m 365 -299 l 442 -83 l 268 -83 l 232 -299 z "},"u":{"ha":869,"x_min":0,"x_max":0,"o":"m 585 326 b 421 126 585 197 517 126 b 276 290 326 126 276 196 l 276 742 l 90 742 l 90 267 b 371 -24 90 86 200 -24 b 590 88 464 -24 539 14 l 590 0 l 771 0 l 771 742 l 585 742 z "},"ú":{"ha":869,"x_min":0,"x_max":0,"o":"m 486 1089 l 351 864 l 504 864 l 710 1089 z m 585 326 b 421 126 585 197 517 126 b 276 290 326 126 276 196 l 276 742 l 90 742 l 90 267 b 371 -24 90 86 200 -24 b 590 88 464 -24 539 14 l 590 0 l 771 0 l 771 742 l 585 742 z "},"ŭ":{"ha":869,"x_min":0,"x_max":0,"o":"m 435 861 b 682 1081 590 861 681 938 l 532 1081 b 438 982 529 1013 494 982 b 340 1081 378 982 343 1013 l 192 1081 b 435 861 193 938 293 861 z m 585 326 b 421 126 585 197 517 126 b 276 290 326 126 276 196 l 276 742 l 90 742 l 90 267 b 371 -24 90 86 200 -24 b 590 88 464 -24 539 14 l 590 0 l 771 0 l 771 742 l 585 742 z "},"ǔ":{"ha":869,"x_min":0,"x_max":0,"o":"m 708 1089 l 536 1089 l 436 981 l 336 1089 l 164 1089 l 357 864 l 517 864 z m 585 326 b 421 126 585 197 517 126 b 276 290 326 126 276 196 l 276 742 l 90 742 l 90 267 b 371 -24 90 86 200 -24 b 590 88 464 -24 539 14 l 590 0 l 771 0 l 771 742 l 585 742 z "},"û":{"ha":869,"x_min":0,"x_max":0,"o":"m 536 864 l 708 864 l 517 1089 l 357 1089 l 164 864 l 336 864 l 436 972 z m 585 326 b 421 126 585 197 517 126 b 276 290 326 126 276 196 l 276 742 l 90 742 l 90 267 b 371 -24 90 86 200 -24 b 590 88 464 -24 539 14 l 590 0 l 771 0 l 771 742 l 585 742 z "},"ü":{"ha":869,"x_min":0,"x_max":0,"o":"m 261 865 b 367 967 318 865 367 908 b 261 1068 367 1024 319 1068 b 156 967 201 1068 156 1024 b 261 865 156 908 201 865 z m 613 865 b 717 967 669 865 717 908 b 613 1068 717 1024 671 1068 b 506 967 553 1068 506 1024 b 613 865 506 908 553 865 z m 585 326 b 421 126 585 197 517 126 b 276 290 326 126 276 196 l 276 742 l 90 742 l 90 267 b 371 -24 90 86 200 -24 b 590 88 464 -24 539 14 l 590 0 l 771 0 l 771 742 l 585 742 z "},"ụ":{"ha":869,"x_min":0,"x_max":0,"o":"m 585 326 b 421 126 585 197 517 126 b 276 290 326 126 276 196 l 276 742 l 90 742 l 90 267 b 371 -24 90 86 200 -24 b 590 88 464 -24 539 14 l 590 0 l 771 0 l 771 742 l 585 742 z m 436 -106 b 319 -218 371 -106 319 -153 b 436 -331 319 -282 371 -331 b 553 -218 499 -331 553 -282 b 436 -106 553 -153 501 -106 z "},"ù":{"ha":869,"x_min":0,"x_max":0,"o":"m 390 1089 l 165 1089 l 368 864 l 521 864 z m 585 326 b 421 126 585 197 517 126 b 276 290 326 126 276 196 l 276 742 l 90 742 l 90 267 b 371 -24 90 86 200 -24 b 590 88 464 -24 539 14 l 590 0 l 771 0 l 771 742 l 585 742 z "},"ű":{"ha":869,"x_min":0,"x_max":0,"o":"m 324 1089 l 246 864 l 381 864 l 504 1089 z m 604 1089 l 508 864 l 643 864 l 785 1089 z m 585 326 b 421 126 585 197 517 126 b 276 290 326 126 276 196 l 276 742 l 90 742 l 90 267 b 371 -24 90 86 200 -24 b 590 88 464 -24 539 14 l 590 0 l 771 0 l 771 742 l 585 742 z "},"ū":{"ha":869,"x_min":0,"x_max":0,"o":"m 188 1011 l 188 878 l 685 878 l 685 1011 z m 585 326 b 421 126 585 197 517 126 b 276 290 326 126 276 196 l 276 742 l 90 742 l 90 267 b 371 -24 90 86 200 -24 b 590 88 464 -24 539 14 l 590 0 l 771 0 l 771 742 l 585 742 z "},"ų":{"ha":869,"x_min":0,"x_max":0,"o":"m 585 326 b 421 126 585 197 517 126 b 276 290 326 126 276 196 l 276 742 l 90 742 l 90 267 b 371 -24 90 86 200 -24 b 590 88 464 -24 539 14 l 590 3 b 497 -161 532 -44 497 -99 b 651 -286 497 -235 551 -286 b 736 -279 679 -286 708 -285 l 736 -174 l 718 -174 b 649 -126 674 -174 649 -158 b 736 0 649 -79 679 -32 l 771 0 l 771 742 l 585 742 z "},"ů":{"ha":869,"x_min":0,"x_max":0,"o":"m 436 857 b 603 1019 533 857 603 924 b 436 1181 603 1114 533 1181 b 267 1019 338 1181 267 1114 b 436 857 267 924 338 857 z m 436 1089 b 506 1019 476 1089 506 1060 b 436 947 506 978 476 947 b 365 1019 394 947 365 978 b 436 1089 365 1060 394 1089 z m 585 326 b 421 126 585 197 517 126 b 276 290 326 126 276 196 l 276 742 l 90 742 l 90 267 b 371 -24 90 86 200 -24 b 590 88 464 -24 539 14 l 590 0 l 771 0 l 771 742 l 585 742 z "},"ũ":{"ha":869,"x_min":0,"x_max":0,"o":"m 347 954 b 550 864 414 954 426 864 b 725 1075 661 864 725 933 l 585 1075 b 525 994 582 1022 567 994 b 322 1085 457 994 444 1085 b 147 874 210 1085 147 1015 l 288 874 b 347 954 290 926 304 954 z m 585 326 b 421 126 585 197 517 126 b 276 290 326 126 276 196 l 276 742 l 90 742 l 90 267 b 371 -24 90 86 200 -24 b 590 88 464 -24 539 14 l 590 0 l 771 0 l 771 742 l 585 742 z "},"v":{"ha":810,"x_min":0,"x_max":0,"o":"m 407 215 l 213 742 l 18 742 l 315 0 l 497 0 l 792 742 l 600 742 z "},"w":{"ha":1225,"x_min":0,"x_max":0,"o":"m 869 232 l 679 742 l 547 742 l 365 236 l 204 742 l 18 742 l 269 0 l 443 0 l 613 454 l 782 0 l 956 0 l 1207 742 l 1024 742 z "},"ẃ":{"ha":1225,"x_min":0,"x_max":0,"o":"m 664 1089 l 529 864 l 682 864 l 888 1089 z m 869 232 l 679 742 l 547 742 l 365 236 l 204 742 l 18 742 l 269 0 l 443 0 l 613 454 l 782 0 l 956 0 l 1207 742 l 1024 742 z "},"ŵ":{"ha":1225,"x_min":0,"x_max":0,"o":"m 713 864 l 885 864 l 693 1089 l 533 1089 l 340 864 l 513 864 l 613 972 z m 869 232 l 679 742 l 547 742 l 365 236 l 204 742 l 18 742 l 269 0 l 443 0 l 613 454 l 782 0 l 956 0 l 1207 742 l 1024 742 z "},"ẅ":{"ha":1225,"x_min":0,"x_max":0,"o":"m 438 865 b 543 967 494 865 543 908 b 438 1068 543 1024 496 1068 b 332 967 378 1068 332 1024 b 438 865 332 908 378 865 z m 789 865 b 893 967 846 865 893 908 b 789 1068 893 1024 847 1068 b 682 967 729 1068 682 1024 b 789 865 682 908 729 865 z m 869 232 l 679 742 l 547 742 l 365 236 l 204 742 l 18 742 l 269 0 l 443 0 l 613 454 l 782 0 l 956 0 l 1207 742 l 1024 742 z "},"ẁ":{"ha":1225,"x_min":0,"x_max":0,"o":"m 567 1089 l 342 1089 l 544 864 l 697 864 z m 869 232 l 679 742 l 547 742 l 365 236 l 204 742 l 18 742 l 269 0 l 443 0 l 613 454 l 782 0 l 956 0 l 1207 742 l 1024 742 z "},"x":{"ha":786,"x_min":0,"x_max":0,"o":"m 494 382 l 736 742 l 539 742 l 389 507 l 225 742 l 21 742 l 276 381 l 26 0 l 224 0 l 386 254 l 565 0 l 765 0 z "},"y":{"ha":810,"x_min":0,"x_max":0,"o":"m 407 215 l 213 742 l 18 742 l 314 13 l 210 -250 l 396 -250 l 792 742 l 600 742 z "},"ý":{"ha":810,"x_min":0,"x_max":0,"o":"m 456 1089 l 321 864 l 474 864 l 679 1089 z m 407 215 l 213 742 l 18 742 l 314 13 l 210 -250 l 396 -250 l 792 742 l 600 742 z "},"ŷ":{"ha":810,"x_min":0,"x_max":0,"o":"m 504 864 l 676 864 l 485 1089 l 325 1089 l 132 864 l 304 864 l 404 972 z m 407 215 l 213 742 l 18 742 l 314 13 l 210 -250 l 396 -250 l 792 742 l 600 742 z "},"ÿ":{"ha":810,"x_min":0,"x_max":0,"o":"m 229 865 b 335 967 286 865 335 908 b 229 1068 335 1024 288 1068 b 124 967 169 1068 124 1024 b 229 865 124 908 169 865 z m 581 865 b 685 967 638 865 685 908 b 581 1068 685 1024 639 1068 b 474 967 521 1068 474 1024 b 581 865 474 908 521 865 z m 407 215 l 213 742 l 18 742 l 314 13 l 210 -250 l 396 -250 l 792 742 l 600 742 z "},"ỳ":{"ha":810,"x_min":0,"x_max":0,"o":"m 358 1089 l 133 1089 l 336 864 l 489 864 z m 407 215 l 213 742 l 18 742 l 314 13 l 210 -250 l 396 -250 l 792 742 l 600 742 z "},"ȳ":{"ha":810,"x_min":0,"x_max":0,"o":"m 156 1011 l 156 878 l 653 878 l 653 1011 z m 407 215 l 213 742 l 18 742 l 314 13 l 210 -250 l 396 -250 l 792 742 l 600 742 z "},"ỹ":{"ha":810,"x_min":0,"x_max":0,"o":"m 317 954 b 519 864 383 954 396 864 b 694 1075 631 864 694 933 l 554 1075 b 494 994 551 1022 536 994 b 292 1085 426 994 414 1085 b 117 874 179 1085 117 1015 l 257 874 b 317 954 260 926 274 954 z m 407 215 l 213 742 l 18 742 l 314 13 l 210 -250 l 396 -250 l 792 742 l 600 742 z "},"z":{"ha":753,"x_min":0,"x_max":0,"o":"m 679 631 l 679 742 l 75 742 l 75 594 l 442 594 l 60 110 l 60 0 l 693 0 l 693 149 l 296 149 z "},"ź":{"ha":753,"x_min":0,"x_max":0,"o":"m 428 1089 l 293 864 l 446 864 l 651 1089 z m 679 631 l 679 742 l 75 742 l 75 594 l 442 594 l 60 110 l 60 0 l 693 0 l 693 149 l 296 149 z "},"ž":{"ha":753,"x_min":0,"x_max":0,"o":"m 649 1089 l 476 1089 l 376 981 l 276 1089 l 104 1089 l 297 864 l 457 864 z m 679 631 l 679 742 l 75 742 l 75 594 l 442 594 l 60 110 l 60 0 l 693 0 l 693 149 l 296 149 z "},"ż":{"ha":753,"x_min":0,"x_max":0,"o":"m 376 865 b 493 978 439 865 493 914 b 376 1090 493 1042 442 1090 b 260 978 311 1090 260 1042 b 376 865 260 914 311 865 z m 679 631 l 679 742 l 75 742 l 75 594 l 442 594 l 60 110 l 60 0 l 693 0 l 693 149 l 296 149 z "},"ﬁ":{"ha":964,"x_min":0,"x_max":0,"o":"m 772 865 b 888 978 835 865 888 914 b 772 1090 888 1042 838 1090 b 656 978 706 1090 656 1042 b 772 865 656 914 706 865 z m 168 742 l 24 742 l 24 590 l 168 590 l 168 0 l 354 0 l 354 590 l 540 590 l 540 742 l 354 742 l 354 779 b 433 857 354 849 374 857 l 556 857 l 556 1007 l 401 1007 b 168 803 222 1007 168 943 z m 865 0 l 865 742 l 679 742 l 679 0 z "},"ﬂ":{"ha":964,"x_min":0,"x_max":0,"o":"m 168 742 l 24 742 l 24 590 l 168 590 l 168 0 l 354 0 l 354 590 l 540 590 l 540 742 l 354 742 l 354 779 b 433 857 354 849 374 857 l 556 857 l 556 1007 l 401 1007 b 168 803 222 1007 168 943 z m 681 0 l 865 0 l 865 1007 l 681 1007 z "},"ª":{"ha":585,"x_min":0,"x_max":0,"o":"m 532 489 b 524 608 529 521 524 568 l 524 829 b 289 1026 524 950 442 1026 b 51 854 153 1026 64 965 l 190 854 b 290 921 197 888 226 921 b 386 833 353 921 386 886 l 386 822 b 324 813 368 817 350 815 l 215 801 b 35 644 103 789 35 740 b 231 474 35 543 114 474 b 400 553 301 474 363 500 l 406 489 z m 260 576 b 171 649 206 576 171 607 b 238 707 171 694 217 704 l 322 715 b 386 732 349 718 369 722 l 386 696 b 260 576 386 624 332 576 z "},"º":{"ha":622,"x_min":0,"x_max":0,"o":"m 313 471 b 589 749 475 471 589 589 b 313 1026 589 908 476 1026 b 35 749 149 1026 35 908 b 313 471 35 589 149 471 z m 313 585 b 178 749 228 585 178 647 b 313 913 178 850 228 913 b 444 749 396 913 444 850 b 313 585 444 646 396 585 z "},"Δ":{"ha":1038,"x_min":0,"x_max":0,"o":"m 424 1007 l 15 0 l 1021 0 l 614 1007 z m 760 163 l 274 163 l 515 786 z "},"Ω":{"ha":1171,"x_min":0,"x_max":0,"o":"m 928 158 b 1107 522 1038 236 1107 363 b 586 1031 1107 821 881 1031 b 64 522 290 1031 64 821 b 242 158 64 363 133 236 l 58 158 l 58 0 l 499 0 l 499 158 b 264 513 350 214 264 324 b 588 867 264 725 393 867 b 907 513 779 867 907 725 b 672 158 907 324 821 214 l 672 0 l 1113 0 l 1113 158 z "},"μ":{"ha":879,"x_min":0,"x_max":0,"o":"m 594 326 b 429 126 594 197 525 126 b 285 290 335 126 285 196 l 285 742 l 100 742 l 100 -250 l 279 -250 l 279 -1 b 379 -24 310 -17 343 -24 b 599 88 472 -24 547 14 l 599 0 l 779 0 l 779 742 l 594 742 z "},"π":{"ha":958,"x_min":0,"x_max":0,"o":"m 918 742 l 24 742 l 24 590 l 154 590 l 154 0 l 339 0 l 339 590 l 603 590 l 603 215 b 836 0 603 63 656 0 l 918 0 l 918 158 l 875 158 b 788 238 808 158 788 163 l 788 590 l 918 590 z "},"₀":{"ha":578,"x_min":0,"x_max":0,"o":"m 289 -187 b 538 104 442 -187 538 -75 b 289 394 538 283 442 394 b 40 104 138 394 40 282 b 289 -187 40 -75 138 -187 z m 289 -72 b 185 104 222 -72 185 -8 b 289 279 185 215 222 279 b 394 104 357 279 394 214 b 289 -72 394 -8 356 -72 z "},"₁":{"ha":389,"x_min":0,"x_max":0,"o":"m 29 265 l 29 125 l 181 225 l 181 -174 l 319 -174 l 319 381 l 194 381 z "},"₂":{"ha":494,"x_min":0,"x_max":0,"o":"m 293 -29 b 453 214 382 49 453 119 b 243 394 453 325 364 394 b 33 208 118 394 44 322 l 163 208 b 246 285 172 257 203 285 b 315 217 294 285 315 250 b 199 57 315 164 261 113 l 39 -85 l 39 -174 l 456 -174 l 456 -68 l 249 -68 z "},"₃":{"ha":510,"x_min":0,"x_max":0,"o":"m 460 290 l 460 381 l 44 381 l 44 275 l 289 275 l 142 135 l 192 57 b 244 67 208 64 231 67 b 331 -6 299 67 331 36 b 253 -81 331 -51 299 -81 b 161 -8 211 -81 176 -54 l 28 -8 b 254 -187 46 -118 126 -187 b 468 -8 386 -187 468 -111 b 311 153 468 76 411 140 z "},"₄":{"ha":538,"x_min":0,"x_max":0,"o":"m 424 21 l 424 381 l 294 381 l 29 17 l 29 -85 l 301 -85 l 301 -174 l 424 -174 l 424 -85 l 507 -85 l 507 21 z m 301 211 l 301 21 l 163 21 z "},"₅":{"ha":533,"x_min":0,"x_max":0,"o":"m 293 194 b 200 176 257 194 225 189 l 214 275 l 472 275 l 472 381 l 107 381 l 63 85 l 167 47 b 268 89 192 74 228 89 b 358 4 328 89 358 53 b 272 -78 358 -46 326 -78 b 178 -12 225 -78 189 -51 l 40 -12 b 274 -185 68 -132 160 -185 b 497 10 408 -185 497 -108 b 293 194 497 121 418 194 z "},"₆":{"ha":546,"x_min":0,"x_max":0,"o":"m 300 201 b 171 153 247 201 203 183 b 289 293 181 243 219 293 b 371 242 326 293 354 275 l 497 242 b 289 394 471 338 401 394 b 40 97 131 394 40 279 b 283 -187 40 -82 129 -187 b 510 6 414 -187 510 -111 b 300 201 510 126 415 201 z m 282 -79 b 188 10 224 -79 188 -42 b 283 97 188 63 225 97 b 375 10 339 97 375 61 b 282 -79 375 -42 340 -79 z "},"₇":{"ha":476,"x_min":0,"x_max":0,"o":"m 28 275 l 296 275 l 74 -174 l 222 -174 l 449 290 l 449 381 l 28 381 z "},"₈":{"ha":532,"x_min":0,"x_max":0,"o":"m 399 115 b 475 240 447 142 475 185 b 265 394 475 335 393 394 b 56 240 139 394 56 335 b 132 115 56 186 83 143 b 36 -21 69 90 36 44 b 265 -187 36 -128 121 -187 b 496 -21 411 -187 496 -126 b 399 115 496 43 461 90 z m 265 296 b 353 228 319 296 353 268 b 265 160 353 186 319 160 b 179 228 213 160 179 185 b 265 296 179 268 213 296 z m 265 -87 b 175 -14 210 -87 175 -58 b 265 63 175 35 211 63 b 357 -14 321 63 357 33 b 265 -87 357 -60 319 -87 z "},"₉":{"ha":546,"x_min":0,"x_max":0,"o":"m 263 394 b 36 200 133 394 36 318 b 246 6 36 79 132 6 b 375 53 299 6 343 22 b 258 -86 365 -36 326 -86 b 176 -35 221 -86 193 -68 l 49 -35 b 257 -187 75 -129 143 -187 b 506 110 415 -187 506 -72 b 263 394 506 290 417 394 z m 264 110 b 171 197 207 110 171 146 b 264 285 171 249 207 285 b 358 197 322 285 358 249 b 264 110 358 144 322 110 z "},"⁰":{"ha":578,"x_min":0,"x_max":0,"o":"m 289 738 b 538 1029 442 738 538 850 b 289 1319 538 1208 442 1319 b 40 1029 138 1319 40 1207 b 289 738 40 850 138 738 z m 289 853 b 185 1029 222 853 185 917 b 289 1204 185 1140 222 1204 b 394 1029 357 1204 394 1139 b 289 853 394 917 356 853 z "},"¹":{"ha":389,"x_min":0,"x_max":0,"o":"m 29 1190 l 29 1050 l 181 1150 l 181 751 l 319 751 l 319 1306 l 194 1306 z "},"²":{"ha":494,"x_min":0,"x_max":0,"o":"m 293 896 b 453 1139 382 974 453 1044 b 243 1319 453 1250 364 1319 b 33 1133 118 1319 44 1247 l 163 1133 b 246 1210 172 1182 203 1210 b 315 1142 294 1210 315 1175 b 199 982 315 1089 261 1038 l 39 840 l 39 751 l 456 751 l 456 857 l 249 857 z "},"³":{"ha":510,"x_min":0,"x_max":0,"o":"m 460 1215 l 460 1306 l 44 1306 l 44 1200 l 289 1200 l 142 1060 l 192 982 b 244 992 208 989 231 992 b 331 919 299 992 331 961 b 253 844 331 874 299 844 b 161 917 211 844 176 871 l 28 917 b 254 738 46 807 126 738 b 468 917 386 738 468 814 b 311 1078 468 1001 411 1065 z "},"⁴":{"ha":538,"x_min":0,"x_max":0,"o":"m 424 946 l 424 1306 l 294 1306 l 29 942 l 29 840 l 301 840 l 301 751 l 424 751 l 424 840 l 507 840 l 507 946 z m 301 1136 l 301 946 l 163 946 z "},"⁵":{"ha":533,"x_min":0,"x_max":0,"o":"m 293 1119 b 200 1101 257 1119 225 1114 l 214 1200 l 472 1200 l 472 1306 l 107 1306 l 63 1010 l 167 972 b 268 1014 192 999 228 1014 b 358 929 328 1014 358 978 b 272 847 358 879 326 847 b 178 913 225 847 189 874 l 40 913 b 274 740 68 793 160 740 b 497 935 408 740 497 817 b 293 1119 497 1046 418 1119 z "},"⁶":{"ha":546,"x_min":0,"x_max":0,"o":"m 300 1126 b 171 1078 247 1126 203 1108 b 289 1218 181 1168 219 1218 b 371 1167 326 1218 354 1200 l 497 1167 b 289 1319 471 1263 401 1319 b 40 1022 131 1319 40 1204 b 283 738 40 843 129 738 b 510 931 414 738 510 814 b 300 1126 510 1051 415 1126 z m 282 846 b 188 935 224 846 188 883 b 283 1022 188 988 225 1022 b 375 935 339 1022 375 986 b 282 846 375 883 340 846 z "},"⁷":{"ha":476,"x_min":0,"x_max":0,"o":"m 28 1200 l 296 1200 l 74 751 l 222 751 l 449 1215 l 449 1306 l 28 1306 z "},"⁸":{"ha":532,"x_min":0,"x_max":0,"o":"m 399 1040 b 475 1165 447 1067 475 1110 b 265 1319 475 1260 393 1319 b 56 1165 139 1319 56 1260 b 132 1040 56 1111 83 1068 b 36 904 69 1015 36 969 b 265 738 36 797 121 738 b 496 904 411 738 496 799 b 399 1040 496 968 461 1015 z m 265 1221 b 353 1153 319 1221 353 1193 b 265 1085 353 1111 319 1085 b 179 1153 213 1085 179 1110 b 265 1221 179 1193 213 1221 z m 265 838 b 175 911 210 838 175 867 b 265 988 175 960 211 988 b 357 911 321 988 357 958 b 265 838 357 865 319 838 z "},"⁹":{"ha":546,"x_min":0,"x_max":0,"o":"m 263 1319 b 36 1125 133 1319 36 1243 b 246 931 36 1004 132 931 b 375 978 299 931 343 947 b 258 839 365 889 326 839 b 176 890 221 839 193 857 l 49 890 b 257 738 75 796 143 738 b 506 1035 415 738 506 853 b 263 1319 506 1215 417 1319 z m 264 1035 b 171 1122 207 1035 171 1071 b 264 1210 171 1174 207 1210 b 358 1122 322 1210 358 1174 b 264 1035 358 1069 322 1035 z "},"⁄":{"ha":193,"x_min":0,"x_max":0,"o":"m -164 0 l 511 1007 l 357 1007 l -318 0 z "},"½":{"ha":1117,"x_min":0,"x_max":0,"o":"m 319 453 l 319 1007 l 194 1007 l 29 892 l 29 751 l 181 851 l 181 453 z m 94 0 l 249 0 l 924 1007 l 769 1007 z m 915 144 b 1075 388 1004 222 1075 293 b 865 568 1075 499 986 568 b 656 382 740 568 667 496 l 785 382 b 867 458 793 431 825 458 b 938 390 915 458 938 424 b 821 231 938 338 883 286 l 661 89 l 661 0 l 1078 0 l 1078 106 l 871 106 z "},"¼":{"ha":1074,"x_min":0,"x_max":0,"o":"m 319 453 l 319 1007 l 194 1007 l 29 892 l 29 751 l 181 851 l 181 453 z m 94 0 l 249 0 l 924 1007 l 769 1007 z m 960 194 l 960 554 l 831 554 l 565 190 l 565 89 l 839 89 l 839 0 l 960 0 l 960 89 l 1044 89 l 1044 194 z m 839 388 l 839 194 l 699 194 z "},"¾":{"ha":1197,"x_min":0,"x_max":0,"o":"m 468 618 b 311 779 468 703 411 767 l 460 917 l 460 1007 l 44 1007 l 44 901 l 289 901 l 142 761 l 192 683 b 244 693 208 690 231 693 b 331 621 299 693 331 663 b 253 546 331 575 299 546 b 161 618 211 546 176 572 l 28 618 b 254 439 46 508 126 439 b 468 618 386 439 468 515 z m 218 0 l 374 0 l 1049 1007 l 893 1007 z m 1083 194 l 1083 554 l 956 554 l 690 190 l 690 89 l 963 89 l 963 0 l 1083 0 l 1083 89 l 1168 89 l 1168 194 z m 963 388 l 963 194 l 822 194 z "},".":{"ha":390,"x_min":0,"x_max":0,"o":"m 196 -10 b 311 101 258 -10 311 38 b 196 215 311 167 261 215 b 79 101 129 215 79 167 b 196 -10 79 38 129 -10 z "},",":{"ha":383,"x_min":0,"x_max":0,"o":"m 181 -181 l 304 190 l 117 190 l 44 -181 z "},":":{"ha":390,"x_min":0,"x_max":0,"o":"m 196 525 b 311 636 258 525 311 572 b 196 749 311 701 261 749 b 79 636 129 749 79 701 b 196 525 79 572 129 525 z m 196 -10 b 311 101 258 -10 311 38 b 196 215 311 167 261 215 b 79 101 129 215 79 167 b 196 -10 79 38 129 -10 z "},";":{"ha":400,"x_min":0,"x_max":0,"o":"m 206 525 b 322 636 269 525 322 572 b 206 749 322 701 271 749 b 89 636 140 749 89 701 b 206 525 89 572 140 525 z m 185 -181 l 308 190 l 117 190 l 44 -181 z "},"…":{"ha":1047,"x_min":0,"x_max":0,"o":"m 196 -10 b 311 101 258 -10 311 38 b 196 215 311 167 261 215 b 79 101 129 215 79 167 b 196 -10 79 38 129 -10 z m 525 -10 b 640 101 588 -10 640 38 b 525 215 640 167 590 215 b 408 101 458 215 408 167 b 525 -10 408 38 458 -10 z m 853 -10 b 968 101 915 -10 968 38 b 853 215 968 167 918 215 b 736 101 786 215 736 167 b 853 -10 736 38 786 -10 z "},"!":{"ha":418,"x_min":0,"x_max":0,"o":"m 285 329 l 307 1007 l 113 1007 l 133 329 z m 210 -10 b 325 101 272 -10 325 38 b 210 215 325 167 275 215 b 93 101 143 215 93 167 b 210 -10 93 38 143 -10 z "},"¡":{"ha":418,"x_min":0,"x_max":0,"o":"m 208 767 b 93 656 146 767 93 719 b 208 542 93 590 143 542 b 325 656 275 542 325 590 b 208 767 325 719 275 767 z m 132 428 l 111 -250 l 306 -250 l 285 428 z "},"?":{"ha":800,"x_min":0,"x_max":0,"o":"m 474 329 l 474 346 b 746 740 474 503 746 500 b 400 1031 746 915 608 1031 b 42 694 186 1031 40 907 l 224 694 b 394 867 228 804 294 867 b 554 726 492 867 554 810 b 303 347 554 567 303 569 l 303 329 z m 388 -10 b 504 101 451 -10 504 38 b 388 215 504 167 453 215 b 271 101 322 215 271 167 b 388 -10 271 38 322 -10 z "},"¿":{"ha":800,"x_min":0,"x_max":0,"o":"m 413 765 b 297 653 350 765 297 717 b 413 540 297 589 347 540 b 529 653 479 540 529 589 b 413 765 529 718 479 765 z m 326 426 l 326 410 b 56 15 326 251 56 256 b 401 -275 56 -160 192 -275 b 758 60 615 -275 760 -151 l 576 60 b 406 -112 572 -49 506 -112 b 247 29 308 -112 247 -54 b 499 408 247 189 499 186 l 499 426 z "},"·":{"ha":344,"x_min":0,"x_max":0,"o":"m 172 375 b 289 486 235 375 289 422 b 172 600 289 551 238 600 b 56 486 107 600 56 551 b 172 375 56 422 107 375 z "},"•":{"ha":550,"x_min":0,"x_max":0,"o":"m 275 289 b 474 486 389 289 474 372 b 275 683 474 600 389 683 b 76 486 161 683 76 600 b 275 289 76 372 161 289 z "},"*":{"ha":658,"x_min":0,"x_max":0,"o":"m 329 658 l 410 481 l 525 549 l 407 701 l 603 686 l 603 819 l 407 804 l 525 958 l 408 1026 l 329 847 l 249 1026 l 133 957 l 251 804 l 56 819 l 56 686 l 251 701 l 133 549 l 249 481 z "},"#":{"ha":1138,"x_min":0,"x_max":0,"o":"m 1082 750 l 864 750 l 919 1007 l 782 1007 l 726 750 l 519 750 l 575 1007 l 436 1007 l 381 750 l 161 750 l 133 624 l 353 624 l 301 388 l 83 388 l 56 263 l 275 263 l 218 0 l 357 0 l 414 263 l 621 263 l 564 0 l 701 0 l 758 263 l 976 263 l 1004 388 l 785 388 l 836 624 l 1056 624 z m 440 388 l 492 624 l 699 624 l 647 388 z "},"/":{"ha":883,"x_min":0,"x_max":0,"o":"m 249 0 l 844 1007 l 635 1007 l 39 0 z "},"\\":{"ha":883,"x_min":0,"x_max":0,"o":"m 249 1007 l 39 1007 l 635 0 l 844 0 z "},"(":{"ha":511,"x_min":0,"x_max":0,"o":"m 492 -250 b 254 461 332 -15 254 213 b 492 1172 254 710 332 940 l 286 1172 b 58 461 132 953 58 710 b 286 -250 58 211 132 -28 z "},")":{"ha":511,"x_min":0,"x_max":0,"o":"m 225 -250 b 453 461 379 -28 453 211 b 225 1172 453 710 379 953 l 19 1172 b 257 461 179 940 257 710 b 19 -250 257 213 179 -15 z "},"{":{"ha":565,"x_min":0,"x_max":0,"o":"m 532 -250 l 532 -86 l 468 -86 b 343 53 369 -86 343 -47 l 343 207 b 240 461 343 351 332 419 b 343 715 332 501 343 571 l 343 868 b 468 1007 343 968 369 1007 l 532 1007 l 532 1171 l 414 1171 b 157 888 161 1171 157 993 l 157 701 b 49 546 157 583 147 546 l 19 546 l 19 376 l 49 376 b 157 221 144 376 157 339 l 157 32 b 414 -250 157 -72 161 -250 z "},"}":{"ha":565,"x_min":0,"x_max":0,"o":"m 151 -250 b 408 32 404 -250 408 -72 l 408 221 b 517 376 408 339 421 376 l 546 376 l 546 546 l 517 546 b 408 701 418 546 408 583 l 408 888 b 151 1171 408 993 404 1171 l 33 1171 l 33 1007 l 97 1007 b 222 868 196 1007 222 968 l 222 715 b 325 461 222 571 233 501 b 222 207 233 419 222 351 l 222 53 b 97 -86 222 -47 196 -86 l 33 -86 l 33 -250 z "},"[":{"ha":511,"x_min":0,"x_max":0,"o":"m 478 -250 l 478 -85 l 296 -85 l 296 1007 l 478 1007 l 478 1172 l 111 1172 l 111 -250 z "},"]":{"ha":511,"x_min":0,"x_max":0,"o":"m 401 1172 l 33 1172 l 33 1007 l 215 1007 l 215 -85 l 33 -85 l 33 -250 l 401 -250 z "},"-":{"ha":628,"x_min":0,"x_max":0,"o":"m 546 349 l 546 510 l 81 510 l 81 349 z "},"­":{"ha":628,"x_min":0,"x_max":0,"o":"m 546 349 l 546 510 l 81 510 l 81 349 z "},"–":{"ha":889,"x_min":0,"x_max":0,"o":"m 808 349 l 808 510 l 81 510 l 81 349 z "},"—":{"ha":1179,"x_min":0,"x_max":0,"o":"m 1113 349 l 1113 510 l 67 510 l 67 349 z "},"_":{"ha":639,"x_min":0,"x_max":0,"o":"m 628 -217 l 628 -65 l 11 -65 l 11 -217 z "},"‚":{"ha":343,"x_min":0,"x_max":0,"o":"m 206 -178 l 265 186 l 97 186 l 76 -178 z "},"„":{"ha":590,"x_min":0,"x_max":0,"o":"m 206 -178 l 265 186 l 97 186 l 76 -178 z m 453 -178 l 513 186 l 344 186 l 324 -178 z "},"“":{"ha":590,"x_min":0,"x_max":0,"o":"m 246 643 l 265 1007 l 136 1007 l 76 643 z m 493 643 l 513 1007 l 383 1007 l 324 643 z "},"”":{"ha":590,"x_min":0,"x_max":0,"o":"m 206 643 l 265 1007 l 97 1007 l 76 643 z m 453 643 l 513 1007 l 344 1007 l 324 643 z "},"‘":{"ha":343,"x_min":0,"x_max":0,"o":"m 246 643 l 265 1007 l 136 1007 l 76 643 z "},"’":{"ha":343,"x_min":0,"x_max":0,"o":"m 206 643 l 265 1007 l 97 1007 l 76 643 z "},"«":{"ha":799,"x_min":0,"x_max":0,"o":"m 249 671 l 51 372 l 249 74 l 421 74 l 236 372 l 421 671 z m 561 671 l 364 372 l 561 74 l 733 74 l 549 372 l 733 671 z "},"»":{"ha":799,"x_min":0,"x_max":0,"o":"m 65 671 l 250 372 l 65 74 l 238 74 l 435 372 l 238 671 z m 378 671 l 563 372 l 378 74 l 550 74 l 747 372 l 550 671 z "},"‹":{"ha":486,"x_min":0,"x_max":0,"o":"m 249 671 l 51 372 l 249 74 l 421 74 l 236 372 l 421 671 z "},"›":{"ha":486,"x_min":0,"x_max":0,"o":"m 65 671 l 250 372 l 65 74 l 238 74 l 435 372 l 238 671 z "},"\"":{"ha":546,"x_min":0,"x_max":0,"o":"m 217 642 l 233 1007 l 65 1007 l 82 642 z m 464 642 l 481 1007 l 313 1007 l 329 642 z "},"'":{"ha":299,"x_min":0,"x_max":0,"o":"m 217 642 l 233 1007 l 65 1007 l 82 642 z "}," ":{"ha":308,"x_min":0,"x_max":0,"o":""}," ":{"ha":1389,"x_min":0,"x_max":0,"o":""}," ":{"ha":1389,"x_min":0,"x_max":0,"o":""}," ":{"ha":694,"x_min":0,"x_max":0,"o":""}," ":{"ha":694,"x_min":0,"x_max":0,"o":""}," ":{"ha":954,"x_min":0,"x_max":0,"o":""}," ":{"ha":347,"x_min":0,"x_max":0,"o":""}," ":{"ha":97,"x_min":0,"x_max":0,"o":""}," ":{"ha":54,"x_min":0,"x_max":0,"o":""}," ":{"ha":390,"x_min":0,"x_max":0,"o":""}," ":{"ha":231,"x_min":0,"x_max":0,"o":""}," ":{"ha":274,"x_min":0,"x_max":0,"o":""}," ":{"ha":174,"x_min":0,"x_max":0,"o":""}," ":{"ha":463,"x_min":0,"x_max":0,"o":""},"​":{"ha":0,"x_min":0,"x_max":0,"o":""},"¢":{"ha":846,"x_min":0,"x_max":0,"o":"m 497 607 b 619 499 557 593 596 554 l 796 499 b 497 761 761 642 647 742 l 497 896 l 378 896 l 378 760 b 53 371 182 731 53 576 b 378 -19 53 165 182 10 l 378 -156 l 497 -156 l 497 -21 b 796 238 647 -1 761 97 l 618 238 b 497 133 596 185 556 147 z m 244 371 b 378 603 244 493 293 575 l 378 138 b 244 371 293 165 244 247 z "},"¤":{"ha":838,"x_min":0,"x_max":0,"o":"m 246 226 b 421 174 296 193 356 174 b 592 225 485 174 543 192 l 692 125 l 782 215 l 683 315 b 738 489 719 367 738 422 b 683 663 738 554 718 614 l 782 760 l 690 850 l 594 753 b 421 807 543 788 485 807 b 244 751 354 807 297 786 l 149 851 l 57 761 l 157 661 b 104 489 124 613 104 554 b 157 317 104 425 121 368 l 56 215 l 146 126 z m 421 306 b 235 489 318 306 235 389 b 421 675 235 592 318 675 b 606 489 524 675 606 593 b 421 306 606 388 522 306 z "},"$":{"ha":913,"x_min":0,"x_max":0,"o":"m 857 304 b 569 583 857 454 771 558 l 517 590 l 517 869 b 656 731 592 851 638 799 l 840 731 b 517 1026 811 903 690 1007 l 517 1163 l 396 1163 l 396 1026 b 68 710 197 1006 68 882 b 349 432 68 546 189 453 l 396 426 l 396 138 b 232 297 321 154 256 201 l 42 297 b 396 -19 74 97 213 -1 l 396 -156 l 517 -156 l 517 -19 b 857 304 725 -1 857 117 z m 264 726 b 396 871 264 797 314 853 l 396 604 b 264 726 343 614 264 640 z m 517 411 b 663 281 606 396 663 356 b 517 135 663 199 601 149 z "},"€":{"ha":1047,"x_min":0,"x_max":0,"o":"m 574 140 b 331 326 460 140 372 211 l 585 326 l 611 453 l 304 453 b 301 504 303 469 301 486 b 303 551 301 521 301 536 l 632 551 l 658 678 l 329 678 b 574 867 371 793 456 867 b 806 692 685 867 767 800 l 993 692 b 572 1031 946 897 786 1031 b 140 678 360 1031 197 889 l 28 678 l 28 551 l 119 551 b 118 504 118 536 118 519 b 119 453 118 486 118 469 l 29 453 l 29 326 l 142 326 b 574 -24 199 117 361 -24 b 992 313 786 -24 944 108 l 804 313 b 574 140 764 206 683 140 z "},"ƒ":{"ha":790,"x_min":0,"x_max":0,"o":"m 765 854 l 765 1007 l 599 1007 b 361 829 461 1007 383 956 l 335 676 l 164 676 l 164 525 l 308 525 l 214 -15 b 107 -97 204 -71 172 -97 l -15 -97 l -15 -250 l 157 -250 b 389 -72 289 -250 367 -200 l 493 525 l 724 525 l 724 676 l 519 676 l 536 772 b 643 854 547 828 578 854 z "},"£":{"ha":875,"x_min":0,"x_max":0,"o":"m 350 163 b 425 340 401 210 425 272 b 419 394 425 358 422 376 l 617 394 l 617 558 l 353 558 b 307 718 328 610 307 661 b 461 863 307 814 363 863 b 625 728 553 863 603 811 l 807 728 b 454 1026 785 915 668 1026 b 108 736 244 1026 108 924 b 156 558 108 664 131 610 l 43 558 l 43 394 l 228 394 b 235 336 232 376 235 357 b 42 160 235 243 164 160 l 42 0 l 818 0 l 818 163 z "},"¥":{"ha":936,"x_min":0,"x_max":0,"o":"m 711 1007 l 475 583 l 233 1007 l 15 1007 l 297 528 l 110 528 l 110 385 l 371 385 l 371 281 l 110 281 l 110 139 l 371 139 l 371 0 l 565 0 l 565 139 l 828 139 l 828 281 l 565 281 l 565 385 l 828 385 l 828 528 l 639 528 l 921 1007 z "},"+":{"ha":844,"x_min":0,"x_max":0,"o":"m 503 597 l 503 813 l 343 813 l 343 597 l 121 597 l 121 446 l 343 446 l 343 229 l 503 229 l 503 446 l 725 446 l 725 597 z "},"−":{"ha":844,"x_min":0,"x_max":0,"o":"m 725 446 l 725 597 l 121 597 l 121 446 z "},"×":{"ha":844,"x_min":0,"x_max":0,"o":"m 613 815 l 424 626 l 233 815 l 126 710 l 317 519 l 126 329 l 233 225 l 424 414 l 613 225 l 719 329 l 529 519 l 719 710 z "},"÷":{"ha":844,"x_min":0,"x_max":0,"o":"m 424 690 b 532 796 483 690 532 736 b 424 901 532 856 485 901 b 314 796 361 901 314 856 b 424 690 314 736 361 690 z m 725 446 l 725 596 l 121 596 l 121 446 z m 424 140 b 532 246 483 140 532 185 b 424 351 532 304 485 351 b 314 246 361 351 314 304 b 424 140 314 185 361 140 z "},"=":{"ha":844,"x_min":0,"x_max":0,"o":"m 725 579 l 725 729 l 121 729 l 121 579 z m 725 304 l 725 456 l 121 456 l 121 304 z "},"≠":{"ha":844,"x_min":0,"x_max":0,"o":"m 725 731 l 610 731 l 675 853 l 528 853 l 463 731 l 121 731 l 121 579 l 382 579 l 317 456 l 121 456 l 121 304 l 235 304 l 169 181 l 317 181 l 382 304 l 725 304 l 725 456 l 464 456 l 529 579 l 725 579 z "},">":{"ha":844,"x_min":0,"x_max":0,"o":"m 122 715 l 561 522 l 122 328 l 122 149 l 732 429 l 732 615 l 122 892 z "},"<":{"ha":846,"x_min":0,"x_max":0,"o":"m 113 615 l 113 429 l 722 149 l 722 328 l 285 522 l 722 715 l 722 892 z "},"≥":{"ha":844,"x_min":0,"x_max":0,"o":"m 122 757 l 551 588 l 122 418 l 122 239 l 732 496 l 732 681 l 122 933 z m 732 0 l 732 150 l 122 150 l 122 0 z "},"≤":{"ha":846,"x_min":0,"x_max":0,"o":"m 113 681 l 113 496 l 722 239 l 722 418 l 294 588 l 722 757 l 722 933 z m 722 0 l 722 150 l 113 150 l 113 0 z "},"±":{"ha":844,"x_min":0,"x_max":0,"o":"m 503 839 l 343 839 l 343 642 l 121 642 l 121 490 l 343 490 l 343 289 l 503 289 l 503 490 l 725 490 l 725 642 l 503 642 z m 725 0 l 725 150 l 121 150 l 121 0 z "},"≈":{"ha":844,"x_min":0,"x_max":0,"o":"m 546 547 b 733 778 665 547 733 624 l 596 778 b 532 688 593 718 575 688 b 299 788 456 688 432 788 b 111 556 181 788 111 711 l 249 556 b 313 646 251 615 269 646 b 546 547 390 646 413 547 z m 546 251 b 733 482 665 251 733 326 l 596 482 b 532 392 593 422 575 392 b 299 490 456 392 432 490 b 111 260 181 490 111 415 l 249 260 b 313 350 251 319 269 350 b 546 251 390 350 413 251 z "},"¬":{"ha":844,"x_min":0,"x_max":0,"o":"m 725 242 l 725 611 l 121 611 l 121 460 l 565 460 l 565 242 z "},"~":{"ha":733,"x_min":0,"x_max":0,"o":"m 490 394 b 678 625 608 394 678 471 l 540 625 b 476 535 538 565 519 535 b 243 633 399 535 376 633 b 56 403 125 633 56 558 l 193 403 b 257 493 196 463 214 493 b 490 394 335 493 357 394 z "},"^":{"ha":622,"x_min":0,"x_max":0,"o":"m 401 1007 l 224 1007 l 56 632 l 213 632 l 311 846 l 410 632 l 567 632 z "},"∅":{"ha":722,"x_min":0,"x_max":0,"o":"m 660 719 l 603 776 l 546 719 b 361 782 494 758 431 782 b 56 476 192 782 56 646 b 118 292 56 407 79 343 l 61 235 l 118 178 l 175 235 b 361 171 226 194 290 171 b 667 476 531 171 667 307 b 603 663 667 547 643 611 z m 153 478 b 361 690 153 596 246 690 b 479 653 406 690 446 676 l 188 361 b 153 478 165 394 153 435 z m 361 264 b 242 301 317 264 276 278 l 535 594 b 569 478 557 561 569 521 b 361 264 569 360 476 264 z "},"∞":{"ha":951,"x_min":0,"x_max":0,"o":"m 690 729 b 468 610 588 729 521 674 b 258 729 418 678 344 729 b 56 514 135 729 56 643 b 261 310 56 389 133 310 b 483 429 363 310 429 365 b 693 310 533 360 607 310 b 896 525 817 310 896 396 b 690 729 896 650 818 729 z m 269 428 b 181 518 215 428 181 465 b 272 611 181 576 215 611 b 401 524 326 611 365 578 b 269 428 360 471 321 428 z m 681 428 b 550 515 622 428 581 467 b 682 611 592 568 631 611 b 771 518 735 611 771 575 b 681 428 771 463 736 428 z "},"∫":{"ha":790,"x_min":0,"x_max":0,"o":"m 157 -250 b 389 -72 289 -250 367 -200 l 536 772 b 643 854 547 828 578 854 l 765 854 l 765 1007 l 599 1007 b 361 829 461 1007 383 956 l 214 -15 b 107 -97 204 -71 172 -97 l -15 -97 l -15 -250 z "},"∏":{"ha":1169,"x_min":0,"x_max":0,"o":"m 40 1007 l 40 844 l 204 844 l 204 0 l 399 0 l 399 844 l 771 844 l 771 0 l 965 0 l 965 844 l 1129 844 l 1129 1007 z "},"∑":{"ha":854,"x_min":0,"x_max":0,"o":"m 563 504 l 288 857 l 767 857 l 767 1007 l 69 1007 l 69 865 l 351 506 l 60 143 l 60 0 l 772 0 l 772 150 l 278 150 z "},"√":{"ha":832,"x_min":0,"x_max":0,"o":"m 547 1007 l 318 156 l 200 483 l 18 483 l 214 0 l 439 0 l 675 857 l 833 857 l 833 1007 z "},"µ":{"ha":879,"x_min":0,"x_max":0,"o":"m 594 326 b 429 126 594 197 525 126 b 285 290 335 126 285 196 l 285 742 l 100 742 l 100 -250 l 279 -250 l 279 -1 b 379 -24 310 -17 343 -24 b 599 88 472 -24 547 14 l 599 0 l 779 0 l 779 742 l 594 742 z "},"∂":{"ha":911,"x_min":0,"x_max":0,"o":"m 478 1031 b 110 754 292 1031 169 926 l 289 754 b 467 875 326 832 386 875 b 668 576 600 875 668 767 l 668 572 b 431 674 615 635 535 674 b 50 290 229 674 50 521 b 396 -24 50 100 190 -24 b 846 574 696 -24 846 240 b 478 1031 846 856 715 1031 z m 411 132 b 240 308 304 132 240 204 b 444 525 240 435 326 525 b 618 353 550 525 618 458 b 411 132 618 226 535 132 z "},"%":{"ha":1271,"x_min":0,"x_max":0,"o":"m 289 465 b 538 744 442 465 538 576 b 289 1021 538 914 442 1021 b 40 744 138 1021 40 914 b 289 465 40 576 138 465 z m 375 0 l 1050 1007 l 896 1007 l 221 0 z m 289 582 b 185 744 222 582 185 640 b 289 904 185 846 222 904 b 394 744 357 904 394 846 b 289 582 394 642 356 582 z m 983 -14 b 1231 264 1135 -14 1231 97 b 983 540 1231 435 1135 540 b 735 264 831 540 735 433 b 983 -14 735 97 831 -14 z m 983 101 b 878 264 917 101 878 161 b 983 425 878 367 917 425 b 1088 264 1050 425 1088 365 b 983 101 1088 161 1050 101 z "},"‰":{"ha":1850,"x_min":0,"x_max":0,"o":"m 289 465 b 538 744 442 465 538 576 b 289 1021 538 914 442 1021 b 40 744 138 1021 40 914 b 289 465 40 576 138 465 z m 375 0 l 1050 1007 l 896 1007 l 221 0 z m 289 582 b 185 744 222 582 185 640 b 289 904 185 846 222 904 b 394 744 357 904 394 846 b 289 582 394 642 356 582 z m 983 -14 b 1231 264 1135 -14 1231 97 b 983 540 1231 435 1135 540 b 735 264 831 540 735 433 b 983 -14 735 97 831 -14 z m 1561 -14 b 1810 264 1714 -14 1810 97 b 1561 540 1810 435 1714 540 b 1313 264 1408 540 1313 433 b 1561 -14 1313 97 1408 -14 z m 983 101 b 878 264 917 101 878 161 b 983 425 878 367 917 425 b 1088 264 1050 425 1088 365 b 983 101 1088 161 1050 101 z m 1561 101 b 1457 264 1494 101 1457 161 b 1561 425 1457 367 1494 425 b 1665 264 1628 425 1665 365 b 1561 101 1665 161 1628 101 z "},"↑":{"ha":1122,"x_min":0,"x_max":0,"o":"m 561 1029 l 121 590 l 236 474 l 472 711 l 472 0 l 650 0 l 650 713 l 888 474 l 1001 590 z "},"↗":{"ha":1032,"x_min":0,"x_max":0,"o":"m 288 746 l 624 747 l 121 244 l 246 118 l 750 624 l 749 286 l 911 288 l 911 910 l 289 910 z "},"→":{"ha":1271,"x_min":0,"x_max":0,"o":"m 593 839 l 832 603 l 121 603 l 121 425 l 833 425 l 593 188 l 710 74 l 1150 514 l 710 954 z "},"↘":{"ha":1033,"x_min":0,"x_max":0,"o":"m 750 406 l 246 911 l 121 785 l 624 282 l 288 283 l 289 119 l 911 119 l 913 743 l 747 743 z "},"↓":{"ha":1122,"x_min":0,"x_max":0,"o":"m 650 296 l 650 1007 l 472 1007 l 472 294 l 235 533 l 121 417 l 561 -22 l 1001 417 l 886 533 z "},"↙":{"ha":1032,"x_min":0,"x_max":0,"o":"m 786 911 l 282 406 l 285 743 l 121 742 l 121 119 l 743 119 l 744 283 l 408 282 l 911 785 z "},"←":{"ha":1271,"x_min":0,"x_max":0,"o":"m 436 603 l 676 840 l 560 954 l 121 514 l 560 74 l 676 190 l 438 426 l 1150 426 l 1150 603 z "},"↖":{"ha":1033,"x_min":0,"x_max":0,"o":"m 410 747 l 746 746 l 743 910 l 122 910 l 121 286 l 286 286 l 283 622 l 788 118 l 913 244 z "},"↔":{"ha":1294,"x_min":0,"x_max":0,"o":"m 728 800 l 918 589 l 378 589 l 568 800 l 467 897 l 121 514 l 467 128 l 568 228 l 379 438 l 917 438 l 728 228 l 826 128 l 1174 514 l 826 897 z "},"↕":{"ha":1011,"x_min":0,"x_max":0,"o":"m 582 774 l 793 583 l 890 683 l 506 1031 l 121 683 l 219 583 l 431 775 l 431 232 l 219 425 l 121 324 l 506 -24 l 890 324 l 793 425 l 582 235 z "},"◊":{"ha":706,"x_min":0,"x_max":0,"o":"m 293 1007 l 56 504 l 292 0 l 414 0 l 650 504 l 415 1007 z m 183 501 l 350 892 l 524 506 l 356 114 z "},"@":{"ha":1425,"x_min":0,"x_max":0,"o":"m 907 679 l 900 599 b 699 699 863 654 800 699 b 368 329 506 699 368 539 b 640 24 368 150 472 24 b 888 139 757 24 831 71 b 1056 32 911 72 971 32 b 1367 460 1235 32 1367 219 b 742 1031 1367 803 1086 1031 b 58 364 372 1031 58 768 b 746 -275 58 -19 339 -275 b 1126 -199 889 -275 1013 -243 l 1126 -74 b 754 -160 1006 -126 885 -160 b 188 365 419 -160 188 49 b 744 914 188 690 433 914 b 1239 457 1021 914 1239 739 b 1072 147 1239 297 1171 147 b 1021 254 1019 147 1015 193 l 1060 679 z m 686 154 b 532 332 588 154 532 221 b 719 568 532 472 600 568 b 875 392 818 568 875 504 b 686 154 875 244 801 154 z "},"&":{"ha":1039,"x_min":0,"x_max":0,"o":"m 836 178 b 965 504 904 264 951 375 l 781 504 b 719 303 774 428 753 360 l 521 515 b 753 797 663 597 753 667 b 450 1031 753 936 633 1031 b 144 794 265 1031 144 929 b 264 557 144 710 197 633 b 42 257 128 481 42 394 b 415 -22 42 94 196 -22 b 715 67 525 -22 628 10 l 776 0 l 1001 0 z m 450 886 b 568 788 521 886 568 847 b 419 625 568 719 504 675 b 329 785 363 690 329 739 b 450 886 329 844 376 886 z m 426 128 b 238 264 314 128 238 178 b 368 442 238 333 279 385 l 608 182 b 426 128 557 147 496 128 z "},"¶":{"ha":994,"x_min":0,"x_max":0,"o":"m 468 1007 b 56 658 222 1007 56 869 b 415 326 56 425 254 324 l 415 -250 l 551 -250 l 551 851 l 700 851 l 700 -250 l 836 -250 l 836 851 l 954 851 l 954 1007 z "},"§":{"ha":858,"x_min":0,"x_max":0,"o":"m 804 350 b 563 606 804 526 663 574 l 408 653 b 286 775 369 665 286 693 b 419 893 286 846 339 893 b 576 763 507 893 560 840 l 739 763 b 422 1029 714 932 600 1029 b 110 756 231 1029 110 918 b 151 614 110 697 126 650 b 42 407 81 565 42 494 b 254 163 42 257 153 192 l 429 111 b 568 -18 496 90 568 67 b 424 -137 568 -100 504 -137 b 239 11 347 -137 264 -104 l 68 11 b 417 -275 100 -192 238 -275 b 742 0 621 -275 742 -168 b 700 144 742 63 725 108 b 804 350 765 192 804 261 z m 353 308 b 218 426 303 325 218 350 b 271 518 218 465 239 497 l 296 510 l 486 456 b 629 332 558 433 629 410 b 578 238 629 290 610 258 b 507 261 551 249 526 256 z "},"©":{"ha":1169,"x_min":0,"x_max":0,"o":"m 586 -24 b 1111 504 888 -24 1111 203 b 586 1031 1111 806 886 1031 b 58 504 285 1031 58 806 b 586 -24 58 203 285 -24 z m 586 71 b 160 504 343 71 160 256 b 586 935 160 750 343 935 b 1011 504 828 935 1011 750 b 586 71 1011 256 828 71 z m 592 219 b 844 407 718 219 817 294 l 711 407 b 592 335 690 363 651 335 b 453 503 504 335 453 396 b 592 672 453 607 504 672 b 711 594 651 672 692 642 l 844 594 b 592 786 817 708 718 786 b 310 503 424 786 310 667 b 592 219 310 338 424 219 z "},"®":{"ha":717,"x_min":0,"x_max":0,"o":"m 358 1025 b 56 718 189 1025 56 894 b 358 414 56 543 188 414 b 661 718 529 414 661 543 b 358 1025 661 894 528 1025 z m 358 475 b 121 721 224 475 121 579 b 358 963 121 860 225 963 b 596 721 492 963 596 860 b 358 475 596 579 492 475 z m 489 779 b 376 879 489 840 446 879 l 244 879 l 244 561 l 317 561 l 317 676 l 347 676 l 414 561 l 493 561 l 421 683 b 489 779 463 696 489 731 z m 375 819 b 417 779 399 819 417 801 b 375 736 417 753 399 736 l 317 736 l 317 819 z "},"™":{"ha":1182,"x_min":0,"x_max":0,"o":"m 179 899 l 179 504 l 310 504 l 310 899 l 457 899 l 457 1007 l 31 1007 l 31 899 z m 818 740 l 665 1007 l 543 1007 l 543 503 l 668 503 l 668 786 l 781 589 l 856 589 l 963 785 l 963 503 l 1088 503 l 1088 1007 l 965 1007 z "},"°":{"ha":594,"x_min":0,"x_max":0,"o":"m 297 536 b 539 778 444 536 539 631 b 297 1019 539 925 444 1019 b 56 778 150 1019 56 925 b 297 536 56 631 150 536 z m 297 649 b 175 778 222 649 175 700 b 297 906 175 856 222 906 b 419 778 372 906 419 856 b 297 649 419 700 372 649 z "},"|":{"ha":399,"x_min":0,"x_max":0,"o":"m 289 -250 l 289 1007 l 111 1007 l 111 -250 z "},"¦":{"ha":399,"x_min":0,"x_max":0,"o":"m 289 453 l 289 1007 l 111 1007 l 111 453 z m 289 -250 l 289 303 l 111 303 l 111 -250 z "},"†":{"ha":690,"x_min":0,"x_max":0,"o":"m 435 769 l 435 1007 l 257 1007 l 257 769 l 67 769 l 67 621 l 257 621 l 257 -250 l 435 -250 l 435 621 l 624 621 l 624 769 z "},"‡":{"ha":690,"x_min":0,"x_max":0,"o":"m 624 771 l 435 771 l 435 1007 l 257 1007 l 257 771 l 67 771 l 67 621 l 257 621 l 257 136 l 67 136 l 67 -14 l 257 -14 l 257 -250 l 435 -250 l 435 -14 l 624 -14 l 624 136 l 435 136 l 435 621 l 624 621 z "},"℮":{"ha":1228,"x_min":0,"x_max":0,"o":"m 614 0 b 1072 203 824 0 939 57 l 968 203 b 614 40 888 111 756 40 b 263 219 403 40 263 168 l 263 469 b 285 496 263 494 271 496 l 1172 496 b 614 1021 1158 835 944 1021 b 56 510 288 1021 56 815 b 614 0 56 199 288 0 z m 285 528 b 263 540 268 528 263 532 l 263 807 b 613 985 263 851 413 985 b 965 796 771 985 965 876 l 965 551 b 940 528 965 533 961 528 z "},"№":{"ha":1667,"x_min":0,"x_max":0,"o":"m 1357 1026 b 1079 749 1193 1026 1079 908 b 1357 471 1079 589 1193 471 b 1633 749 1519 471 1633 589 b 1357 1026 1633 908 1521 1026 z m 276 1007 l 111 1007 l 111 0 l 289 0 l 289 692 l 769 0 l 933 0 l 933 1007 l 754 1007 l 754 319 z m 1357 585 b 1222 749 1272 585 1222 647 b 1357 913 1222 850 1272 913 b 1489 749 1440 913 1489 850 b 1357 585 1489 646 1440 585 z "},"ʼ":{"ha":299,"x_min":0,"x_max":0,"o":"m 217 642 l 233 1007 l 65 1007 l 82 642 z "},"̈":{"ha":0,"x_min":0,"x_max":0,"o":"m -511 865 b -406 967 -454 865 -406 908 b -511 1068 -406 1024 -453 1068 b -617 967 -571 1068 -617 1024 b -511 865 -617 908 -571 865 z m -160 865 b -56 967 -103 865 -56 908 b -160 1068 -56 1024 -101 1068 b -267 967 -219 1068 -267 1024 b -160 865 -267 908 -219 865 z "},"̇":{"ha":0,"x_min":0,"x_max":0,"o":"m -172 865 b -56 978 -110 865 -56 914 b -172 1090 -56 1042 -107 1090 b -289 978 -237 1090 -289 1042 b -172 865 -289 914 -237 865 z "},"̀":{"ha":0,"x_min":0,"x_max":0,"o":"m -56 864 l -186 1089 l -411 1089 l -208 864 z "},"́":{"ha":0,"x_min":0,"x_max":0,"o":"m -261 864 l -56 1089 l -279 1089 l -414 864 z "},"̋":{"ha":0,"x_min":0,"x_max":0,"o":"m -460 864 l -336 1089 l -517 1089 l -594 864 z m -197 864 l -56 1089 l -236 1089 l -332 864 z "},"̂":{"ha":0,"x_min":0,"x_max":0,"o":"m -247 1089 l -407 1089 l -600 864 l -428 864 l -328 972 l -228 864 l -56 864 z "},"̌":{"ha":0,"x_min":0,"x_max":0,"o":"m -328 981 l -428 1089 l -600 1089 l -407 864 l -247 864 l -56 1089 l -228 1089 z "},"̆":{"ha":0,"x_min":0,"x_max":0,"o":"m -303 861 b -56 1081 -147 861 -57 938 l -206 1081 b -300 982 -208 1013 -243 982 b -397 1081 -360 982 -394 1013 l -546 1081 b -303 861 -544 938 -444 861 z "},"̊":{"ha":0,"x_min":0,"x_max":0,"o":"m -222 857 b -56 1019 -125 857 -56 924 b -222 1181 -56 1114 -125 1181 b -392 1019 -321 1181 -392 1114 b -222 857 -392 924 -321 857 z m -222 947 b -293 1019 -264 947 -293 978 b -222 1089 -293 1060 -264 1089 b -153 1019 -182 1089 -153 1060 b -222 947 -153 978 -182 947 z "},"̃":{"ha":0,"x_min":0,"x_max":0,"o":"m -231 864 b -56 1075 -119 864 -56 933 l -196 1075 b -256 994 -199 1022 -214 994 b -458 1085 -324 994 -336 1085 b -633 874 -571 1085 -633 1015 l -493 874 b -433 954 -490 926 -476 954 b -231 864 -367 954 -354 864 z "},"̄":{"ha":0,"x_min":0,"x_max":0,"o":"m -56 878 l -56 1011 l -553 1011 l -553 878 z "},"̒":{"ha":0,"x_min":0,"x_max":0,"o":"m -92 864 l -56 1089 l -187 1089 l -264 864 z "},"̣":{"ha":0,"x_min":0,"x_max":0,"o":"m -172 -331 b -56 -218 -110 -331 -56 -282 b -172 -106 -56 -153 -107 -106 b -289 -218 -237 -106 -289 -153 b -172 -331 -289 -282 -237 -331 z "},"̦":{"ha":0,"x_min":0,"x_max":0,"o":"m -132 -299 l -56 -83 l -229 -83 l -265 -299 z "},"̧":{"ha":0,"x_min":0,"x_max":0,"o":"m -129 0 l -201 53 l -292 -81 l -264 -133 l -233 -133 b -189 -164 -200 -133 -189 -143 b -247 -192 -189 -185 -210 -192 b -312 -187 -269 -192 -285 -192 l -312 -278 b -226 -285 -282 -283 -256 -285 b -56 -171 -104 -285 -56 -243 b -181 -71 -56 -110 -106 -74 z "},"̨":{"ha":0,"x_min":0,"x_max":0,"o":"m -140 -286 b -56 -279 -112 -286 -83 -285 l -56 -174 l -74 -174 b -143 -126 -118 -174 -143 -158 b -56 0 -143 -79 -112 -32 l -147 42 b -294 -161 -237 -14 -294 -82 b -140 -286 -294 -235 -240 -286 z "},"¨":{"ha":672,"x_min":0,"x_max":0,"o":"m 161 865 b 267 967 218 865 267 908 b 161 1068 267 1024 219 1068 b 56 967 101 1068 56 1024 b 161 865 56 908 101 865 z m 513 865 b 617 967 569 865 617 908 b 513 1068 617 1024 571 1068 b 406 967 453 1068 406 1024 b 513 865 406 908 453 865 z "},"˙":{"ha":344,"x_min":0,"x_max":0,"o":"m 172 865 b 289 978 235 865 289 914 b 172 1090 289 1042 238 1090 b 56 978 107 1090 56 1042 b 172 865 56 914 107 865 z "},"`":{"ha":467,"x_min":0,"x_max":0,"o":"m 411 864 l 281 1089 l 56 1089 l 258 864 z "},"´":{"ha":469,"x_min":0,"x_max":0,"o":"m 208 864 l 414 1089 l 190 1089 l 56 864 z "},"˝":{"ha":650,"x_min":0,"x_max":0,"o":"m 190 864 l 314 1089 l 133 1089 l 56 864 z m 453 864 l 594 1089 l 414 1089 l 318 864 z "},"ˆ":{"ha":656,"x_min":0,"x_max":0,"o":"m 408 1089 l 249 1089 l 56 864 l 228 864 l 328 972 l 428 864 l 600 864 z "},"ˇ":{"ha":656,"x_min":0,"x_max":0,"o":"m 328 981 l 228 1089 l 56 1089 l 249 864 l 408 864 l 600 1089 l 428 1089 z "},"˘":{"ha":601,"x_min":0,"x_max":0,"o":"m 299 861 b 546 1081 454 861 544 938 l 396 1081 b 301 982 393 1013 358 982 b 204 1081 242 982 207 1013 l 56 1081 b 299 861 57 938 157 861 z "},"˚":{"ha":447,"x_min":0,"x_max":0,"o":"m 225 857 b 392 1019 322 857 392 924 b 225 1181 392 1114 322 1181 b 56 1019 126 1181 56 1114 b 225 857 56 924 126 857 z m 225 947 b 154 1019 183 947 154 978 b 225 1089 154 1060 183 1089 b 294 1019 265 1089 294 1060 b 225 947 294 978 265 947 z "},"˜":{"ha":689,"x_min":0,"x_max":0,"o":"m 458 864 b 633 1075 569 864 633 933 l 493 1075 b 433 994 490 1022 475 994 b 231 1085 365 994 353 1085 b 56 874 118 1085 56 1015 l 196 874 b 256 954 199 926 213 954 b 458 864 322 954 335 864 z "},"¯":{"ha":608,"x_min":0,"x_max":0,"o":"m 553 878 l 553 1011 l 56 1011 l 56 878 z "},"¸":{"ha":368,"x_min":0,"x_max":0,"o":"m 239 0 l 167 53 l 76 -81 l 104 -133 l 135 -133 b 179 -164 168 -133 179 -143 b 121 -192 179 -185 158 -192 b 56 -187 99 -192 83 -192 l 56 -278 b 142 -285 86 -283 113 -285 b 313 -171 264 -285 313 -243 b 188 -71 313 -110 263 -74 z "},"˛":{"ha":350,"x_min":0,"x_max":0,"o":"m 210 -286 b 294 -279 238 -286 267 -285 l 294 -174 l 276 -174 b 207 -126 232 -174 207 -158 b 294 0 207 -79 238 -32 l 203 42 b 56 -161 113 -14 56 -82 b 210 -286 56 -235 110 -286 z "}}}
